<svg width="172" height="29" viewBox="0 0 172 29" fill="none" xmlns="http://www.w3.org/2000/svg">
<path d="M4.0332 13.7656L11.1348 10.6016C11.4277 10.4961 11.6621 10.4375 11.9668 10.4375C13.0332 10.4375 13.748 11.1641 13.748 12.2422C13.748 13.1562 13.1855 13.7891 12.1309 14.0586L5.31055 16.5312V16.6836L12.1074 19.3203C13.1738 19.6367 13.7363 20.2812 13.7363 21.1719C13.7363 22.25 13.0098 23.0234 11.9785 23.0234C11.6738 23.0234 11.4395 22.9648 11.123 22.8359L4.0332 19.543C2.4043 18.8984 1.81836 17.9961 1.81836 16.6836C1.81836 15.3008 2.45117 14.3398 4.0332 13.7656ZM23.1465 25.6016C22.9473 26.3516 22.3145 26.8086 21.5527 26.8086C20.6152 26.8086 19.9004 26.0469 19.9355 25.168C19.9355 24.9453 19.9824 24.7227 20.0293 24.6055L24.916 7.25C25.127 6.5 25.748 6.04297 26.5215 6.04297C27.4473 6.04297 28.1621 6.79297 28.1387 7.68359C28.127 7.90625 28.0801 8.11719 28.0449 8.24609L23.1465 25.6016ZM39.3887 13.7656C40.9707 14.3398 41.5918 15.3008 41.5918 16.6836C41.5918 17.9961 41.0176 18.8984 39.3887 19.543L32.2988 22.8359C31.9707 22.9648 31.748 23.0234 31.4316 23.0234C30.4121 23.0234 29.6738 22.25 29.6738 21.1719C29.6738 20.2812 30.248 19.6367 31.3027 19.3203L38.1113 16.6836V16.5312L31.291 14.0586C30.2246 13.7891 29.6621 13.1562 29.6621 12.2422C29.6621 11.1641 30.377 10.4375 31.4551 10.4375C31.7598 10.4375 31.9941 10.4961 32.2754 10.6016L39.3887 13.7656Z" fill="#7A68EB"/>
<path d="M50.5977 23.0977C49.5723 23.0977 48.9961 22.4727 48.9961 21.3594V11.877C48.9961 10.2852 49.582 9.66992 51.1055 9.66992H54.5332C57.4531 9.66992 59.2988 11.4473 59.2988 14.1914C59.2988 17.1113 57.4238 18.7422 54.3672 18.7422H52.2188V21.3594C52.2188 22.4629 51.6328 23.0977 50.5977 23.0977ZM52.2285 16.3398H53.6934C55.3633 16.3398 56.1055 15.793 56.1055 14.25C56.1055 12.9219 55.373 12.1602 54.0547 12.1602H52.2285V16.3398ZM64.0449 21.3789C64.0449 22.4727 63.459 23.0977 62.4434 23.0977C61.418 23.0977 60.9102 22.4727 60.9102 21.3789V14.2012C60.9102 13.0977 61.4473 12.4824 62.4531 12.4824C63.3613 12.4824 63.8789 12.9902 63.9473 13.9375V14.084H64.0938C64.4453 13.0098 65.1875 12.4141 66.1934 12.4141C66.623 12.4141 66.9648 12.5312 67.209 12.7656C67.4629 13 67.5996 13.3418 67.5996 13.7812C67.5996 14.2109 67.4727 14.5234 67.2188 14.7383C66.9844 14.9336 66.623 15.041 66.1543 15.0605C64.7383 15.1094 64.0449 15.8809 64.0449 17.375V21.3789ZM69.0059 9.9043C69.0059 9.01562 69.7188 8.38086 70.6953 8.38086C71.6816 8.38086 72.3848 9.01562 72.3848 9.9043C72.3848 10.8027 71.6816 11.4375 70.6953 11.4375C69.7188 11.4375 69.0059 10.8027 69.0059 9.9043ZM72.2676 21.3789C72.2676 22.502 71.6914 23.0977 70.6953 23.0977C69.6992 23.0977 69.1328 22.502 69.1328 21.3789V14.2012C69.1328 13.0781 69.709 12.4824 70.6953 12.4824C71.6914 12.4824 72.2676 13.0781 72.2676 14.2012V21.3789ZM75.3438 20.1973V15.0801H74.9629C74.1328 15.0801 73.6641 14.6406 73.6641 13.8887C73.6641 13.1367 74.1328 12.6973 74.9629 12.6973H75.4219V11.5645C75.4219 10.4902 75.9688 9.89453 76.9355 9.89453C77.9121 9.89453 78.4492 10.4902 78.4492 11.5645V12.6973H79.2695C80.0996 12.6973 80.5684 13.1367 80.5684 13.8887C80.5684 14.6406 80.0996 15.0801 79.2695 15.0801H78.4883V19.7188C78.4883 20.5586 78.7227 20.8711 79.3867 20.8711C79.6602 20.8711 79.8262 20.8223 80.0996 20.8223C80.5879 20.8223 80.9297 21.1641 80.9297 21.7109C80.9297 22.1602 80.7246 22.5312 80.334 22.7949C79.9141 23.0879 79.2988 23.2441 78.5078 23.2441C76.3398 23.2441 75.3438 22.3066 75.3438 20.1973ZM87.9512 21.7207C87.4629 22.5996 86.4473 23.1172 85.207 23.1172C83.166 23.1172 81.7891 21.8477 81.7891 19.9629C81.7891 18.0195 83.2441 16.8281 85.6562 16.8184H87.9609V16.0664C87.9609 15.1875 87.3848 14.7188 86.3887 14.7188C85.666 14.7188 85.1387 15.0117 84.582 15.4121C84.2598 15.6172 83.9375 15.7344 83.4492 15.7344C82.7754 15.7344 82.3652 15.2852 82.3652 14.6797C82.3652 14.0449 82.7949 13.4102 83.7617 12.9512C84.4551 12.6191 85.3828 12.4141 86.5938 12.4141C89.4648 12.4141 91.0957 13.752 91.0957 16.1055V21.4375C91.0957 22.5117 90.5488 23.0977 89.5723 23.0977C88.7715 23.0977 88.2246 22.6777 88.0977 21.9258V21.7207H87.9512ZM84.875 19.7383C84.875 20.4707 85.4707 20.9785 86.3203 20.9785C87.2383 20.9785 87.9609 20.3633 87.9609 19.5723V18.5566H86.3594C85.4414 18.5566 84.875 19.0059 84.875 19.7383ZM108.664 21.3789C108.664 22.502 108.098 23.0977 107.092 23.0977C106.086 23.0977 105.529 22.502 105.529 21.3789V16.75C105.529 15.5977 104.963 14.9434 104.006 14.9434C103.039 14.9434 102.424 15.6758 102.424 16.8379V21.3789C102.424 22.502 101.906 23.0977 100.93 23.0977C99.9434 23.0977 99.4258 22.502 99.4258 21.3789V16.7695C99.4258 15.627 98.8398 14.9434 97.8828 14.9434C96.9258 14.9434 96.3203 15.666 96.3203 16.8379V21.3789C96.3203 22.502 95.7637 23.0977 94.7578 23.0977C93.752 23.0977 93.1855 22.502 93.1855 21.3789V14.1523C93.1855 13.1172 93.7715 12.4824 94.7188 12.4824C95.6172 12.4824 96.1836 13.0684 96.2324 14.0547V14.3477H96.3887C96.7109 13.1758 97.834 12.4141 99.25 12.4141C100.725 12.4141 101.77 13.1562 102.102 14.3867H102.248C102.648 13.1953 103.84 12.4141 105.354 12.4141C107.404 12.4141 108.664 13.6836 108.664 15.7637V21.3789ZM110.49 20.2559C110.49 19.4746 111.057 18.9277 111.75 18.9277C112.219 18.9277 112.619 19.1035 113.156 19.582C113.957 20.334 114.924 20.7441 115.91 20.7441C117.307 20.7441 118.059 20.2363 118.059 19.3184C118.059 18.5762 117.473 18.1172 116.066 17.8145L114.23 17.3945C111.828 16.8867 110.646 15.6465 110.646 13.6055C110.646 11.0469 112.639 9.42578 115.764 9.42578C117.473 9.42578 119.016 9.92383 119.914 10.7734C120.49 11.3008 120.793 11.8867 120.793 12.4824C120.793 13.1953 120.285 13.6836 119.533 13.6836C119.113 13.6836 118.693 13.498 118.283 13.1074C117.6 12.3555 116.809 11.9648 115.803 11.9648C114.621 11.9648 113.879 12.502 113.879 13.3418C113.879 14.0742 114.445 14.5918 115.686 14.8359L117.541 15.2363C120.021 15.7344 121.223 16.9551 121.223 18.9766C121.223 21.6035 119.084 23.293 115.744 23.293C113.908 23.293 112.277 22.7656 111.369 21.9062C110.803 21.3691 110.49 20.8027 110.49 20.2559ZM128.674 21.7207C128.186 22.5996 127.17 23.1172 125.93 23.1172C123.889 23.1172 122.512 21.8477 122.512 19.9629C122.512 18.0195 123.967 16.8281 126.379 16.8184H128.684V16.0664C128.684 15.1875 128.107 14.7188 127.111 14.7188C126.389 14.7188 125.861 15.0117 125.305 15.4121C124.982 15.6172 124.66 15.7344 124.172 15.7344C123.498 15.7344 123.088 15.2852 123.088 14.6797C123.088 14.0449 123.518 13.4102 124.484 12.9512C125.178 12.6191 126.105 12.4141 127.316 12.4141C130.188 12.4141 131.818 13.752 131.818 16.1055V21.4375C131.818 22.5117 131.271 23.0977 130.295 23.0977C129.494 23.0977 128.947 22.6777 128.82 21.9258V21.7207H128.674ZM125.598 19.7383C125.598 20.4707 126.193 20.9785 127.043 20.9785C127.961 20.9785 128.684 20.3633 128.684 19.5723V18.5566H127.082C126.164 18.5566 125.598 19.0059 125.598 19.7383ZM137.072 21.3789C137.072 22.4727 136.486 23.0977 135.471 23.0977C134.445 23.0977 133.938 22.4727 133.938 21.3789V14.2012C133.938 13.0977 134.475 12.4824 135.48 12.4824C136.389 12.4824 136.906 12.9902 136.975 13.9375V14.084H137.121C137.473 13.0098 138.215 12.4141 139.221 12.4141C139.65 12.4141 139.992 12.5312 140.236 12.7656C140.49 13 140.627 13.3418 140.627 13.7812C140.627 14.2109 140.5 14.5234 140.246 14.7383C140.012 14.9336 139.65 15.041 139.182 15.0605C137.766 15.1094 137.072 15.8809 137.072 17.375V21.3789ZM148.264 21.3301C147.912 22.4141 146.73 23.1172 145.275 23.1172C142.902 23.1172 141.447 21.3398 141.447 18.4102V17.1113C141.447 14.1816 142.912 12.4141 145.285 12.4141C146.73 12.4141 147.844 13.0684 148.234 14.1328H148.391V10.6074C148.391 9.49414 148.947 8.87891 149.953 8.87891C150.969 8.87891 151.525 9.49414 151.525 10.6074V21.3789C151.525 22.4922 150.979 23.0977 149.973 23.0977C149.064 23.0977 148.498 22.5605 148.42 21.623V21.3301H148.264ZM144.689 18.2148C144.689 19.7773 145.373 20.6953 146.525 20.6953C147.678 20.6953 148.391 19.7773 148.391 18.2734V17.1895C148.391 15.7734 147.639 14.8457 146.506 14.8457C145.363 14.8457 144.689 15.7734 144.689 17.3262V18.2148ZM159.514 21.7207C159.025 22.5996 158.01 23.1172 156.77 23.1172C154.729 23.1172 153.352 21.8477 153.352 19.9629C153.352 18.0195 154.807 16.8281 157.219 16.8184H159.523V16.0664C159.523 15.1875 158.947 14.7188 157.951 14.7188C157.229 14.7188 156.701 15.0117 156.145 15.4121C155.822 15.6172 155.5 15.7344 155.012 15.7344C154.338 15.7344 153.928 15.2852 153.928 14.6797C153.928 14.0449 154.357 13.4102 155.324 12.9512C156.018 12.6191 156.945 12.4141 158.156 12.4141C161.027 12.4141 162.658 13.752 162.658 16.1055V21.4375C162.658 22.5117 162.111 23.0977 161.135 23.0977C160.334 23.0977 159.787 22.6777 159.66 21.9258V21.7207H159.514ZM156.438 19.7383C156.438 20.4707 157.033 20.9785 157.883 20.9785C158.801 20.9785 159.523 20.3633 159.523 19.5723V18.5566H157.922C157.004 18.5566 156.438 19.0059 156.438 19.7383ZM167.912 21.3789C167.912 22.4727 167.326 23.0977 166.311 23.0977C165.285 23.0977 164.777 22.4727 164.777 21.3789V14.2012C164.777 13.0977 165.314 12.4824 166.32 12.4824C167.229 12.4824 167.746 12.9902 167.814 13.9375V14.084H167.961C168.312 13.0098 169.055 12.4141 170.061 12.4141C170.49 12.4141 170.832 12.5312 171.076 12.7656C171.33 13 171.467 13.3418 171.467 13.7812C171.467 14.2109 171.34 14.5234 171.086 14.7383C170.852 14.9336 170.49 15.041 170.021 15.0605C168.605 15.1094 167.912 15.8809 167.912 17.375V21.3789Z" fill="black"/>
</svg>
