<svg width="211" height="38" viewBox="0 0 211 38" fill="none" xmlns="http://www.w3.org/2000/svg">
<path d="M5.25 17.6875L14.7188 13.4688C15.1094 13.3281 15.4219 13.25 15.8281 13.25C17.25 13.25 18.2031 14.2188 18.2031 15.6562C18.2031 16.875 17.4531 17.7188 16.0469 18.0781L6.95312 21.375V21.5781L16.0156 25.0938C17.4375 25.5156 18.1875 26.375 18.1875 27.5625C18.1875 29 17.2188 30.0312 15.8438 30.0312C15.4375 30.0312 15.125 29.9531 14.7031 29.7812L5.25 25.3906C3.07812 24.5312 2.29688 23.3281 2.29688 21.5781C2.29688 19.7344 3.14062 18.4531 5.25 17.6875ZM30.7344 33.4688C30.4688 34.4688 29.625 35.0781 28.6094 35.0781C27.3594 35.0781 26.4062 34.0625 26.4531 32.8906C26.4531 32.5938 26.5156 32.2969 26.5781 32.1406L33.0938 9C33.375 8 34.2031 7.39062 35.2344 7.39062C36.4688 7.39062 37.4219 8.39062 37.3906 9.57812C37.375 9.875 37.3125 10.1562 37.2656 10.3281L30.7344 33.4688ZM52.3906 17.6875C54.5 18.4531 55.3281 19.7344 55.3281 21.5781C55.3281 23.3281 54.5625 24.5312 52.3906 25.3906L42.9375 29.7812C42.5 29.9531 42.2031 30.0312 41.7812 30.0312C40.4219 30.0312 39.4375 29 39.4375 27.5625C39.4375 26.375 40.2031 25.5156 41.6094 25.0938L50.6875 21.5781V21.375L41.5938 18.0781C40.1719 17.7188 39.4219 16.875 39.4219 15.6562C39.4219 14.2188 40.375 13.25 41.8125 13.25C42.2188 13.25 42.5312 13.3281 42.9062 13.4688L52.3906 17.6875Z" fill="#7A68EB"/>
<path d="M65.3945 30.1172C64.1641 30.1172 63.4727 29.3672 63.4727 28.0312V16.6523C63.4727 14.7422 64.1758 14.0039 66.0039 14.0039H70.1172C73.6211 14.0039 75.8359 16.1367 75.8359 19.4297C75.8359 22.9336 73.5859 24.8906 69.918 24.8906H67.3398V28.0312C67.3398 29.3555 66.6367 30.1172 65.3945 30.1172ZM67.3516 22.0078H69.1094C71.1133 22.0078 72.0039 21.3516 72.0039 19.5C72.0039 17.9062 71.125 16.9922 69.543 16.9922H67.3516V22.0078ZM81.5312 28.0547C81.5312 29.3672 80.8281 30.1172 79.6094 30.1172C78.3789 30.1172 77.7695 29.3672 77.7695 28.0547V19.4414C77.7695 18.1172 78.4141 17.3789 79.6211 17.3789C80.7109 17.3789 81.332 17.9883 81.4141 19.125V19.3008H81.5898C82.0117 18.0117 82.9023 17.2969 84.1094 17.2969C84.625 17.2969 85.0352 17.4375 85.3281 17.7188C85.6328 18 85.7969 18.4102 85.7969 18.9375C85.7969 19.4531 85.6445 19.8281 85.3398 20.0859C85.0586 20.3203 84.625 20.4492 84.0625 20.4727C82.3633 20.5312 81.5312 21.457 81.5312 23.25V28.0547ZM87.4844 14.2852C87.4844 13.2188 88.3398 12.457 89.5117 12.457C90.6953 12.457 91.5391 13.2188 91.5391 14.2852C91.5391 15.3633 90.6953 16.125 89.5117 16.125C88.3398 16.125 87.4844 15.3633 87.4844 14.2852ZM91.3984 28.0547C91.3984 29.4023 90.707 30.1172 89.5117 30.1172C88.3164 30.1172 87.6367 29.4023 87.6367 28.0547V19.4414C87.6367 18.0938 88.3281 17.3789 89.5117 17.3789C90.707 17.3789 91.3984 18.0938 91.3984 19.4414V28.0547ZM95.0898 26.6367V20.4961H94.6328C93.6367 20.4961 93.0742 19.9688 93.0742 19.0664C93.0742 18.1641 93.6367 17.6367 94.6328 17.6367H95.1836V16.2773C95.1836 14.9883 95.8398 14.2734 97 14.2734C98.1719 14.2734 98.8164 14.9883 98.8164 16.2773V17.6367H99.8008C100.797 17.6367 101.359 18.1641 101.359 19.0664C101.359 19.9688 100.797 20.4961 99.8008 20.4961H98.8633V26.0625C98.8633 27.0703 99.1445 27.4453 99.9414 27.4453C100.27 27.4453 100.469 27.3867 100.797 27.3867C101.383 27.3867 101.793 27.7969 101.793 28.4531C101.793 28.9922 101.547 29.4375 101.078 29.7539C100.574 30.1055 99.8359 30.293 98.8867 30.293C96.2852 30.293 95.0898 29.168 95.0898 26.6367ZM110.219 28.4648C109.633 29.5195 108.414 30.1406 106.926 30.1406C104.477 30.1406 102.824 28.6172 102.824 26.3555C102.824 24.0234 104.57 22.5938 107.465 22.582H110.23V21.6797C110.23 20.625 109.539 20.0625 108.344 20.0625C107.477 20.0625 106.844 20.4141 106.176 20.8945C105.789 21.1406 105.402 21.2812 104.816 21.2812C104.008 21.2812 103.516 20.7422 103.516 20.0156C103.516 19.2539 104.031 18.4922 105.191 17.9414C106.023 17.543 107.137 17.2969 108.59 17.2969C112.035 17.2969 113.992 18.9023 113.992 21.7266V28.125C113.992 29.4141 113.336 30.1172 112.164 30.1172C111.203 30.1172 110.547 29.6133 110.395 28.7109V28.4648H110.219ZM106.527 26.0859C106.527 26.9648 107.242 27.5742 108.262 27.5742C109.363 27.5742 110.23 26.8359 110.23 25.8867V24.668H108.309C107.207 24.668 106.527 25.207 106.527 26.0859ZM135.074 28.0547C135.074 29.4023 134.395 30.1172 133.188 30.1172C131.98 30.1172 131.312 29.4023 131.312 28.0547V22.5C131.312 21.1172 130.633 20.332 129.484 20.332C128.324 20.332 127.586 21.2109 127.586 22.6055V28.0547C127.586 29.4023 126.965 30.1172 125.793 30.1172C124.609 30.1172 123.988 29.4023 123.988 28.0547V22.5234C123.988 21.1523 123.285 20.332 122.137 20.332C120.988 20.332 120.262 21.1992 120.262 22.6055V28.0547C120.262 29.4023 119.594 30.1172 118.387 30.1172C117.18 30.1172 116.5 29.4023 116.5 28.0547V19.3828C116.5 18.1406 117.203 17.3789 118.34 17.3789C119.418 17.3789 120.098 18.082 120.156 19.2656V19.6172H120.344C120.73 18.2109 122.078 17.2969 123.777 17.2969C125.547 17.2969 126.801 18.1875 127.199 19.6641H127.375C127.855 18.2344 129.285 17.2969 131.102 17.2969C133.562 17.2969 135.074 18.8203 135.074 21.3164V28.0547ZM137.266 26.707C137.266 25.7695 137.945 25.1133 138.777 25.1133C139.34 25.1133 139.82 25.3242 140.465 25.8984C141.426 26.8008 142.586 27.293 143.77 27.293C145.445 27.293 146.348 26.6836 146.348 25.582C146.348 24.6914 145.645 24.1406 143.957 23.7773L141.754 23.2734C138.871 22.6641 137.453 21.1758 137.453 18.7266C137.453 15.6562 139.844 13.7109 143.594 13.7109C145.645 13.7109 147.496 14.3086 148.574 15.3281C149.266 15.9609 149.629 16.6641 149.629 17.3789C149.629 18.2344 149.02 18.8203 148.117 18.8203C147.613 18.8203 147.109 18.5977 146.617 18.1289C145.797 17.2266 144.848 16.7578 143.641 16.7578C142.223 16.7578 141.332 17.4023 141.332 18.4102C141.332 19.2891 142.012 19.9102 143.5 20.2031L145.727 20.6836C148.703 21.2812 150.145 22.7461 150.145 25.1719C150.145 28.3242 147.578 30.3516 143.57 30.3516C141.367 30.3516 139.41 29.7188 138.32 28.6875C137.641 28.043 137.266 27.3633 137.266 26.707ZM159.086 28.4648C158.5 29.5195 157.281 30.1406 155.793 30.1406C153.344 30.1406 151.691 28.6172 151.691 26.3555C151.691 24.0234 153.438 22.5938 156.332 22.582H159.098V21.6797C159.098 20.625 158.406 20.0625 157.211 20.0625C156.344 20.0625 155.711 20.4141 155.043 20.8945C154.656 21.1406 154.27 21.2812 153.684 21.2812C152.875 21.2812 152.383 20.7422 152.383 20.0156C152.383 19.2539 152.898 18.4922 154.059 17.9414C154.891 17.543 156.004 17.2969 157.457 17.2969C160.902 17.2969 162.859 18.9023 162.859 21.7266V28.125C162.859 29.4141 162.203 30.1172 161.031 30.1172C160.07 30.1172 159.414 29.6133 159.262 28.7109V28.4648H159.086ZM155.395 26.0859C155.395 26.9648 156.109 27.5742 157.129 27.5742C158.23 27.5742 159.098 26.8359 159.098 25.8867V24.668H157.176C156.074 24.668 155.395 25.207 155.395 26.0859ZM169.164 28.0547C169.164 29.3672 168.461 30.1172 167.242 30.1172C166.012 30.1172 165.402 29.3672 165.402 28.0547V19.4414C165.402 18.1172 166.047 17.3789 167.254 17.3789C168.344 17.3789 168.965 17.9883 169.047 19.125V19.3008H169.223C169.645 18.0117 170.535 17.2969 171.742 17.2969C172.258 17.2969 172.668 17.4375 172.961 17.7188C173.266 18 173.43 18.4102 173.43 18.9375C173.43 19.4531 173.277 19.8281 172.973 20.0859C172.691 20.3203 172.258 20.4492 171.695 20.4727C169.996 20.5312 169.164 21.457 169.164 23.25V28.0547ZM182.594 27.9961C182.172 29.2969 180.754 30.1406 179.008 30.1406C176.16 30.1406 174.414 28.0078 174.414 24.4922V22.9336C174.414 19.418 176.172 17.2969 179.02 17.2969C180.754 17.2969 182.09 18.082 182.559 19.3594H182.746V15.1289C182.746 13.793 183.414 13.0547 184.621 13.0547C185.84 13.0547 186.508 13.793 186.508 15.1289V28.0547C186.508 29.3906 185.852 30.1172 184.645 30.1172C183.555 30.1172 182.875 29.4727 182.781 28.3477V27.9961H182.594ZM178.305 24.2578C178.305 26.1328 179.125 27.2344 180.508 27.2344C181.891 27.2344 182.746 26.1328 182.746 24.3281V23.0273C182.746 21.3281 181.844 20.2148 180.484 20.2148C179.113 20.2148 178.305 21.3281 178.305 23.1914V24.2578ZM196.094 28.4648C195.508 29.5195 194.289 30.1406 192.801 30.1406C190.352 30.1406 188.699 28.6172 188.699 26.3555C188.699 24.0234 190.445 22.5938 193.34 22.582H196.105V21.6797C196.105 20.625 195.414 20.0625 194.219 20.0625C193.352 20.0625 192.719 20.4141 192.051 20.8945C191.664 21.1406 191.277 21.2812 190.691 21.2812C189.883 21.2812 189.391 20.7422 189.391 20.0156C189.391 19.2539 189.906 18.4922 191.066 17.9414C191.898 17.543 193.012 17.2969 194.465 17.2969C197.91 17.2969 199.867 18.9023 199.867 21.7266V28.125C199.867 29.4141 199.211 30.1172 198.039 30.1172C197.078 30.1172 196.422 29.6133 196.27 28.7109V28.4648H196.094ZM192.402 26.0859C192.402 26.9648 193.117 27.5742 194.137 27.5742C195.238 27.5742 196.105 26.8359 196.105 25.8867V24.668H194.184C193.082 24.668 192.402 25.207 192.402 26.0859ZM206.172 28.0547C206.172 29.3672 205.469 30.1172 204.25 30.1172C203.02 30.1172 202.41 29.3672 202.41 28.0547V19.4414C202.41 18.1172 203.055 17.3789 204.262 17.3789C205.352 17.3789 205.973 17.9883 206.055 19.125V19.3008H206.23C206.652 18.0117 207.543 17.2969 208.75 17.2969C209.266 17.2969 209.676 17.4375 209.969 17.7188C210.273 18 210.438 18.4102 210.438 18.9375C210.438 19.4531 210.285 19.8281 209.98 20.0859C209.699 20.3203 209.266 20.4492 208.703 20.4727C207.004 20.5312 206.172 21.457 206.172 23.25V28.0547Z" fill="black"/>
</svg>
