<svg width="16" height="14" viewBox="0 0 16 14" fill="none" xmlns="http://www.w3.org/2000/svg">
<path d="M12.3595 5.82035C12.573 6.19535 12.7319 6.58598 12.836 6.99223C12.9402 7.39849 12.9949 7.81776 13.0001 8.25006V9.05475L8.00005 11.5626L3.00002 9.05475C3.00002 8.74225 3.00262 8.45058 3.00783 8.17974C3.01304 7.90891 3.03648 7.64588 3.07815 7.39068C3.11981 7.13547 3.18231 6.88025 3.26565 6.62504C3.34898 6.36983 3.47398 6.1016 3.64065 5.82035L2.00001 5.00003V9.586C2.15106 9.63809 2.28647 9.711 2.40627 9.80475C2.52606 9.8985 2.63283 10.0079 2.72658 10.1329C2.82033 10.2579 2.88804 10.3933 2.92971 10.5391C2.97137 10.685 2.99481 10.8386 3.00002 11.0001V13.5001H0V11.0001C0 10.8438 0.0234377 10.6928 0.070313 10.5469C0.117188 10.4011 0.184897 10.2631 0.273439 10.1329C0.361982 10.0027 0.466149 9.8933 0.585941 9.80475C0.705734 9.71621 0.843756 9.64329 1.00001 9.586V4.50003L0 4.00003L8.00005 0L16.0001 4.00003L12.3595 5.82035ZM2.00001 11.0001C2.00001 10.8647 1.95053 10.7475 1.85158 10.6485C1.75262 10.5496 1.63543 10.5001 1.50001 10.5001C1.36459 10.5001 1.2474 10.5496 1.14845 10.6485C1.04949 10.7475 1.00001 10.8647 1.00001 11.0001V12.5001H2.00001V11.0001ZM2.23439 4.00003L8.00005 6.88286L13.7657 4.00003L8.00005 1.1172L2.23439 4.00003ZM12.0001 8.43756C12.0001 8.03651 11.961 7.66411 11.8829 7.32036C11.8048 6.97661 11.6667 6.62504 11.4688 6.26567L8.00005 8.00005L4.53128 6.26567C4.3594 6.56775 4.2292 6.88546 4.14065 7.2188C4.05211 7.55213 4.00524 7.89589 4.00003 8.25006V8.43756L8.00005 10.4376L12.0001 8.43756Z" fill="white"/>
</svg>
