<svg width="14" height="14" viewBox="0 0 14 14" fill="none" xmlns="http://www.w3.org/2000/svg">
<path d="M11.8398 11.0322C11.2848 11.6954 10.6348 12.1988 9.99414 12.4316C9.89287 12.4679 9.7199 12.4584 9.51465 12.3193H9.51562L9.23926 12.1318L9.23633 12.1299C9.2127 12.1139 9.19252 12.0927 9.17773 12.0684C9.16307 12.0441 9.1536 12.0165 9.15039 11.9883C9.14725 11.9601 9.15029 11.9312 9.15918 11.9043C9.16809 11.8774 9.18285 11.8528 9.20215 11.832L9.20703 11.8262L9.21191 11.8213L9.64648 11.3369C9.65879 11.3234 9.6749 11.3131 9.69238 11.3076C9.70943 11.3023 9.72771 11.3018 9.74512 11.3057L10.7246 11.5381L11.0293 11.6104L11.2949 11.4443C11.4946 11.3195 11.6758 11.1809 11.8398 11.0322ZM12.1953 6.92969C12.2481 6.79368 12.4333 6.70553 12.5918 6.77246V6.77344L12.9023 6.90625C13.0835 6.98361 13.1637 7.07483 13.1963 7.1377L13.2148 7.18945C13.3289 7.87101 13.1595 8.7364 12.7549 9.59863C12.8301 9.34965 12.8778 9.0859 12.8955 8.80762L12.918 8.46387L12.6719 8.22363L11.9697 7.53613L11.9678 7.53516L11.9697 7.53125L12.1963 6.93066L12.1953 6.92969Z" fill="white" stroke="white" stroke-width="1.5"/>
</svg>
