<svg width="16" height="16" viewBox="0 0 16 16" fill="none" xmlns="http://www.w3.org/2000/svg">
<path fill-rule="evenodd" clip-rule="evenodd" d="M5.35692 12.8529L8 11.6738L10.6431 12.8523C10.7418 12.8964 10.8504 12.9137 10.958 12.9024C11.0656 12.8911 11.1682 12.8517 11.2557 12.7882C11.3432 12.7246 11.4124 12.6391 11.4563 12.5402C11.5002 12.4414 11.5173 12.3328 11.5058 12.2252L11.2018 9.34708L13.1391 7.19754C13.2113 7.11727 13.2612 7.01941 13.2836 6.91378C13.306 6.80815 13.3003 6.69847 13.2669 6.59577C13.2336 6.49306 13.1738 6.40094 13.0935 6.32867C13.0133 6.25639 12.9155 6.2065 12.8098 6.184L9.97908 5.58338L8.53231 3.07692C8.47829 2.98338 8.40061 2.9057 8.30706 2.8517C8.21352 2.79769 8.1074 2.76926 7.99938 2.76926C7.89137 2.76926 7.78525 2.79769 7.69171 2.8517C7.59816 2.9057 7.52047 2.98338 7.46646 3.07692L6.02031 5.584L3.18954 6.18462C3.08392 6.20711 2.98608 6.257 2.90585 6.32928C2.82562 6.40156 2.76582 6.49368 2.73245 6.59638C2.69909 6.69909 2.69334 6.80876 2.71579 6.91439C2.73823 7.02002 2.78807 7.11788 2.86031 7.19815L4.79754 9.34831L4.49354 12.2258C4.48221 12.3333 4.49939 12.4419 4.54335 12.5406C4.58732 12.6394 4.65651 12.7248 4.74396 12.7883C4.83142 12.8518 4.93406 12.8911 5.04155 12.9024C5.14905 12.9136 5.25761 12.8964 5.35631 12.8523L5.35692 12.8529ZM7.74954 10.4382L5.83015 11.2935L6.05108 9.20431C6.06007 9.11848 6.05091 9.03172 6.02419 8.94966C5.99748 8.8676 5.9538 8.79208 5.896 8.728L4.48923 7.16677L6.54462 6.73108C6.62917 6.71331 6.70904 6.67793 6.77901 6.62725C6.84899 6.57657 6.90751 6.51172 6.95077 6.43692L8 4.61662L9.04985 6.43692C9.09303 6.51165 9.15146 6.57646 9.22133 6.62714C9.29119 6.67781 9.37094 6.71323 9.45538 6.73108L11.5108 7.16677L10.104 8.728C10.0462 8.79208 10.0025 8.8676 9.97581 8.94966C9.94909 9.03172 9.93993 9.11848 9.94892 9.20431L10.1698 11.2942L8.25046 10.4388C8.17163 10.4036 8.0863 10.3855 8 10.3855C7.9137 10.3855 7.82837 10.403 7.74954 10.4382Z" fill="white"/>
<path fill-rule="evenodd" clip-rule="evenodd" d="M8 14.7692C11.7385 14.7692 14.7692 11.7385 14.7692 8C14.7692 4.26154 11.7385 1.23077 8 1.23077C4.26154 1.23077 1.23077 4.26154 1.23077 8C1.23077 11.7385 4.26154 14.7692 8 14.7692ZM8 16C12.4185 16 16 12.4185 16 8C16 3.58154 12.4185 0 8 0C3.58154 0 0 3.58154 0 8C0 12.4185 3.58154 16 8 16Z" fill="white"/>
</svg>
