<svg width="18" height="18" viewBox="0 0 18 18" fill="none" xmlns="http://www.w3.org/2000/svg">
<path d="M11.675 6.475L11.8126 6.6126C12.879 7.679 13.4126 8.2126 13.4126 8.875C13.4126 9.5374 12.879 10.071 11.8126 11.1374L11.675 11.275M9.9102 5.011L7.8398 12.739M6.075 6.475L5.9382 6.6126C4.871 7.679 4.3382 8.2126 4.3382 8.875C4.3382 9.5374 4.871 10.071 5.9382 11.1374L6.075 11.275M0.875 8.875C0.875 5.1038 0.875 3.2182 2.0462 2.0462C3.219 0.875 5.1038 0.875 8.875 0.875C12.6462 0.875 14.5318 0.875 15.703 2.0462C16.875 3.219 16.875 5.1038 16.875 8.875C16.875 12.6462 16.875 14.5318 15.703 15.703C14.5326 16.875 12.6462 16.875 8.875 16.875C5.1038 16.875 3.2182 16.875 2.0462 15.703C0.875 14.5326 0.875 12.6462 0.875 8.875Z" stroke="white" stroke-width="1.75" stroke-linecap="round"/>
</svg>
