<svg width="16" height="16" viewBox="0 0 16 16" fill="none" xmlns="http://www.w3.org/2000/svg">
<path d="M14.6133 7.41781L12.5026 5.30714C13.3565 5.11526 13.9897 4.34774 13.9897 3.43631C13.9897 2.38098 13.1262 1.51752 12.0709 1.51752C11.1595 1.51752 10.4015 2.15072 10.2001 3.00458L8.08939 0.89391C7.89751 0.70203 7.6001 0.70203 7.40822 0.89391L5.29754 3.00458C6.161 3.20606 6.7942 3.96398 6.7942 4.87541C6.7942 5.93074 5.93074 6.7942 4.87541 6.7942C3.96398 6.7942 3.20606 6.161 3.00458 5.30714L0.89391 7.41781C0.70203 7.60969 0.70203 7.9071 0.89391 8.09898L3.00458 10.2097C2.15072 10.4015 1.51752 11.1691 1.51752 12.0805C1.51752 13.1358 2.38098 13.9993 3.43631 13.9993C4.34774 13.9993 5.10566 13.3661 5.30714 12.5122L7.41781 14.6229C7.60969 14.8148 7.9071 14.8148 8.09898 14.6229L10.2097 12.5122C9.3462 12.3011 8.713 11.5432 8.713 10.6318C8.713 9.57645 9.57645 8.713 10.6318 8.713C11.5432 8.713 12.3011 9.3462 12.5026 10.2001L14.6133 8.08939C14.7956 7.9071 14.7956 7.6001 14.6133 7.41781Z" stroke="white" stroke-width="1.5" stroke-linejoin="round"/>
</svg>
