<svg width="16" height="15" viewBox="0 0 16 15" fill="none" xmlns="http://www.w3.org/2000/svg">
<path d="M8.52783 10.4723V13.9723L10.0834 12.8056L11.639 13.9723V10.4723M6.19448 11.639H2.30557C1.893 11.639 1.49734 11.4751 1.20561 11.1833C0.913889 10.8916 0.75 10.496 0.75 10.0834V2.30557C0.75 1.45 1.45 0.75 2.30557 0.75H13.1945C13.6071 0.75 14.0028 0.913889 14.2945 1.20561C14.5862 1.49734 14.7501 1.893 14.7501 2.30557V10.0834C14.7498 10.3562 14.6778 10.6241 14.5413 10.8603C14.4048 11.0964 14.2086 11.2926 13.9723 11.429M3.08335 3.86113H12.4167M3.08335 6.19448H5.4167M3.08335 8.52783H4.63892M7.75005 8.52783C7.75005 9.14667 7.99588 9.74017 8.43347 10.1778C8.87106 10.6153 9.46455 10.8612 10.0834 10.8612C10.7022 10.8612 11.2957 10.6153 11.7333 10.1778C12.1709 9.74017 12.4167 9.14667 12.4167 8.52783C12.4167 7.90899 12.1709 7.31549 11.7333 6.8779C11.2957 6.44032 10.7022 6.19448 10.0834 6.19448C9.46455 6.19448 8.87106 6.44032 8.43347 6.8779C7.99588 7.31549 7.75005 7.90899 7.75005 8.52783Z" stroke="white" stroke-width="1.5" stroke-linecap="round" stroke-linejoin="round"/>
</svg>
