<svg width="16" height="18" viewBox="0 0 16 18" fill="none" xmlns="http://www.w3.org/2000/svg">
<mask id="path-1-inside-1_252_13232" fill="white">
<path d="M8.00021 1.68425C7.2185 1.68425 6.4688 1.99479 5.91605 2.54754C5.3633 3.10029 5.05276 3.84999 5.05276 4.6317C5.05276 5.41341 5.3633 6.1631 5.91605 6.71586C6.4688 7.26861 7.2185 7.57914 8.00021 7.57914C8.78192 7.57914 9.53161 7.26861 10.0844 6.71586C10.6371 6.1631 10.9477 5.41341 10.9477 4.6317C10.9477 3.84999 10.6371 3.10029 10.0844 2.54754C9.53161 1.99479 8.78192 1.68425 8.00021 1.68425ZM3.36851 4.6317C3.36851 3.4033 3.85649 2.22521 4.7251 1.35659C5.59371 0.487981 6.7718 0 8.00021 0C9.22861 0 10.4067 0.487981 11.2753 1.35659C12.1439 2.22521 12.6319 3.4033 12.6319 4.6317C12.6319 5.8601 12.1439 7.03819 11.2753 7.90681C10.4067 8.77542 9.22861 9.2634 8.00021 9.2634C6.7718 9.2634 5.59371 8.77542 4.7251 7.90681C3.85649 7.03819 3.36851 5.8601 3.36851 4.6317ZM14.3018 9.24824L14.8096 9.92026C15.5826 10.9439 16.0005 12.1918 16 13.4745C15.9996 14.7571 15.5808 16.0047 14.8071 17.0278L14.2993 17.6998L12.9561 16.6842L13.4639 16.0122C14.0166 15.2814 14.3158 14.3902 14.3161 13.4739C14.3164 12.5576 14.0178 11.6662 13.4656 10.935L12.9578 10.263L14.3018 9.24824ZM5.05276 11.7898C4.15938 11.7898 3.30259 12.1447 2.67087 12.7764C2.03915 13.4081 1.68425 14.2649 1.68425 15.1583H9.3055V16.8425H0V15.1583C0 13.8182 0.532343 12.533 1.47992 11.5854C2.4275 10.6379 3.71269 10.1055 5.05276 10.1055H9.2634V11.7898H5.05276ZM11.9498 11.0234L12.4576 11.6963C12.8441 12.2081 13.0531 12.832 13.053 13.4733C13.0528 14.1147 12.8435 14.7385 12.4567 15.2501L11.9481 15.9221L10.6049 14.9065L11.1136 14.2345C11.2793 14.0151 11.369 13.7477 11.369 13.4728C11.369 13.1978 11.2793 12.9304 11.1136 12.7111L10.6066 12.039L11.9498 11.0234Z"/>
</mask>
<path d="M8.00021 1.68425C7.2185 1.68425 6.4688 1.99479 5.91605 2.54754C5.3633 3.10029 5.05276 3.84999 5.05276 4.6317C5.05276 5.41341 5.3633 6.1631 5.91605 6.71586C6.4688 7.26861 7.2185 7.57914 8.00021 7.57914C8.78192 7.57914 9.53161 7.26861 10.0844 6.71586C10.6371 6.1631 10.9477 5.41341 10.9477 4.6317C10.9477 3.84999 10.6371 3.10029 10.0844 2.54754C9.53161 1.99479 8.78192 1.68425 8.00021 1.68425ZM3.36851 4.6317C3.36851 3.4033 3.85649 2.22521 4.7251 1.35659C5.59371 0.487981 6.7718 0 8.00021 0C9.22861 0 10.4067 0.487981 11.2753 1.35659C12.1439 2.22521 12.6319 3.4033 12.6319 4.6317C12.6319 5.8601 12.1439 7.03819 11.2753 7.90681C10.4067 8.77542 9.22861 9.2634 8.00021 9.2634C6.7718 9.2634 5.59371 8.77542 4.7251 7.90681C3.85649 7.03819 3.36851 5.8601 3.36851 4.6317ZM14.3018 9.24824L14.8096 9.92026C15.5826 10.9439 16.0005 12.1918 16 13.4745C15.9996 14.7571 15.5808 16.0047 14.8071 17.0278L14.2993 17.6998L12.9561 16.6842L13.4639 16.0122C14.0166 15.2814 14.3158 14.3902 14.3161 13.4739C14.3164 12.5576 14.0178 11.6662 13.4656 10.935L12.9578 10.263L14.3018 9.24824ZM5.05276 11.7898C4.15938 11.7898 3.30259 12.1447 2.67087 12.7764C2.03915 13.4081 1.68425 14.2649 1.68425 15.1583H9.3055V16.8425H0V15.1583C0 13.8182 0.532343 12.533 1.47992 11.5854C2.4275 10.6379 3.71269 10.1055 5.05276 10.1055H9.2634V11.7898H5.05276ZM11.9498 11.0234L12.4576 11.6963C12.8441 12.2081 13.0531 12.832 13.053 13.4733C13.0528 14.1147 12.8435 14.7385 12.4567 15.2501L11.9481 15.9221L10.6049 14.9065L11.1136 14.2345C11.2793 14.0151 11.369 13.7477 11.369 13.4728C11.369 13.1978 11.2793 12.9304 11.1136 12.7111L10.6066 12.039L11.9498 11.0234Z" fill="white"/>
<path d="M8.00021 1.68425V-0.0657458V1.68425ZM5.05276 4.6317H3.30276H5.05276ZM8.00021 7.57914V5.82914V7.57914ZM10.9477 4.6317H12.6977H10.9477ZM3.36851 4.6317H1.61851H3.36851ZM8.00021 0V-1.75V0ZM8.00021 9.2634V11.0134V9.2634ZM14.3018 9.24824L15.6981 8.19321L14.6434 6.79755L13.2474 7.85161L14.3018 9.24824ZM14.8096 9.92026L16.2063 8.86575L16.2059 8.86522L14.8096 9.92026ZM14.8071 17.0278L13.4113 15.9723L13.4109 15.9728L14.8071 17.0278ZM14.2993 17.6998L13.2439 19.0957L14.6402 20.1515L15.6955 18.7549L14.2993 17.6998ZM12.9561 16.6842L11.5599 15.6292L10.5052 17.025L11.9007 18.0801L12.9561 16.6842ZM13.4639 16.0122L12.0681 14.9567L12.0677 14.9572L13.4639 16.0122ZM13.4656 10.935L14.8621 9.88041L14.8618 9.87999L13.4656 10.935ZM12.9578 10.263L11.9033 8.86637L10.5061 9.92127L11.5616 11.318L12.9578 10.263ZM1.68425 15.1583H-0.0657458V16.9083H1.68425V15.1583ZM9.3055 15.1583H11.0555V13.4083H9.3055V15.1583ZM9.3055 16.8425V18.5925H11.0555V16.8425H9.3055ZM0 16.8425H-1.75V18.5925H0V16.8425ZM0 15.1583H-1.75H0ZM5.05276 10.1055V8.35553V10.1055ZM9.2634 10.1055H11.0134V8.35553H9.2634V10.1055ZM9.2634 11.7898V13.5398H11.0134V11.7898H9.2634ZM11.9498 11.0234L13.3466 9.96925L12.2915 8.57114L10.8943 9.62755L11.9498 11.0234ZM12.4576 11.6963L11.0607 12.7505L11.0611 12.751L12.4576 11.6963ZM12.4567 15.2501L13.8521 16.3062L13.8527 16.3054L12.4567 15.2501ZM11.9481 15.9221L10.8926 17.318L12.2878 18.3729L13.3435 16.9782L11.9481 15.9221ZM10.6049 14.9065L9.20954 13.8503L8.15287 15.2464L9.54945 16.3024L10.6049 14.9065ZM11.1136 14.2345L12.5089 15.2906L12.5096 15.2897L11.1136 14.2345ZM11.1136 12.7111L9.7165 13.765L9.7175 13.7663L11.1136 12.7111ZM10.6066 12.039L9.55114 10.6432L8.15678 11.6974L9.20954 13.093L10.6066 12.039ZM8.00021 1.68425V-0.0657458C6.75437 -0.0657458 5.55955 0.429163 4.67861 1.3101L5.91605 2.54754L7.15349 3.78498C7.37805 3.56041 7.68263 3.43425 8.00021 3.43425V1.68425ZM5.91605 2.54754L4.67861 1.3101C3.79767 2.19105 3.30276 3.38586 3.30276 4.6317H5.05276H6.80276C6.80276 4.31412 6.92892 4.00954 7.15349 3.78498L5.91605 2.54754ZM5.05276 4.6317H3.30276C3.30276 5.87754 3.79767 7.07235 4.67861 7.95329L5.91605 6.71586L7.15349 5.47842C6.92892 5.25386 6.80276 4.94928 6.80276 4.6317H5.05276ZM5.91605 6.71586L4.67861 7.95329C5.55955 8.83424 6.75437 9.32914 8.00021 9.32914V7.57914V5.82914C7.68263 5.82914 7.37805 5.70299 7.15349 5.47842L5.91605 6.71586ZM8.00021 7.57914V9.32914C9.24605 9.32914 10.4409 8.83424 11.3218 7.95329L10.0844 6.71586L8.84693 5.47842C8.62236 5.70299 8.31779 5.82914 8.00021 5.82914V7.57914ZM10.0844 6.71586L11.3218 7.95329C12.2027 7.07235 12.6977 5.87754 12.6977 4.6317H10.9477H9.19765C9.19765 4.94928 9.07149 5.25386 8.84693 5.47842L10.0844 6.71586ZM10.9477 4.6317H12.6977C12.6977 3.38586 12.2027 2.19105 11.3218 1.3101L10.0844 2.54754L8.84693 3.78498C9.07149 4.00954 9.19765 4.31412 9.19765 4.6317H10.9477ZM10.0844 2.54754L11.3218 1.3101C10.4409 0.429163 9.24605 -0.0657458 8.00021 -0.0657458V1.68425V3.43425C8.31779 3.43425 8.62236 3.56041 8.84693 3.78498L10.0844 2.54754ZM3.36851 4.6317H5.11851C5.11851 3.86743 5.42212 3.13445 5.96254 2.59403L4.7251 1.35659L3.48767 0.119156C2.29086 1.31596 1.61851 2.93917 1.61851 4.6317H3.36851ZM4.7251 1.35659L5.96254 2.59403C6.50296 2.05361 7.23593 1.75 8.00021 1.75V0V-1.75C6.30768 -1.75 4.68447 -1.07764 3.48767 0.119156L4.7251 1.35659ZM8.00021 0V1.75C8.76448 1.75 9.49745 2.05361 10.0379 2.59403L11.2753 1.35659L12.5128 0.119156C11.316 -1.07764 9.69274 -1.75 8.00021 -1.75V0ZM11.2753 1.35659L10.0379 2.59403C10.5783 3.13445 10.8819 3.86742 10.8819 4.6317H12.6319H14.3819C14.3819 2.93917 13.7096 1.31596 12.5128 0.119156L11.2753 1.35659ZM12.6319 4.6317H10.8819C10.8819 5.39597 10.5783 6.12895 10.0379 6.66937L11.2753 7.90681L12.5128 9.14424C13.7096 7.94744 14.3819 6.32423 14.3819 4.6317H12.6319ZM11.2753 7.90681L10.0379 6.66937C9.49745 7.20979 8.76448 7.5134 8.00021 7.5134V9.2634V11.0134C9.69274 11.0134 11.3159 10.341 12.5128 9.14424L11.2753 7.90681ZM8.00021 9.2634V7.5134C7.23593 7.5134 6.50296 7.20979 5.96254 6.66937L4.7251 7.90681L3.48767 9.14424C4.68447 10.341 6.30768 11.0134 8.00021 11.0134V9.2634ZM4.7251 7.90681L5.96254 6.66937C5.42212 6.12894 5.11851 5.39597 5.11851 4.6317H3.36851H1.61851C1.61851 6.32423 2.29086 7.94744 3.48767 9.14424L4.7251 7.90681ZM14.3018 9.24824L12.9056 10.3033L13.4134 10.9753L14.8096 9.92026L16.2059 8.86522L15.6981 8.19321L14.3018 9.24824ZM14.8096 9.92026L13.413 10.9748C13.9565 11.6945 14.2504 12.5719 14.25 13.4738L16 13.4745L17.75 13.4751C17.7506 11.8116 17.2086 10.1933 16.2063 8.86575L14.8096 9.92026ZM16 13.4745L14.25 13.4738C14.2497 14.3757 13.9552 15.2529 13.4113 15.9723L14.8071 17.0278L16.203 18.0833C17.2063 16.7565 17.7494 15.1386 17.75 13.4751L16 13.4745ZM14.8071 17.0278L13.4109 15.9728L12.9031 16.6448L14.2993 17.6998L15.6955 18.7549L16.2033 18.0828L14.8071 17.0278ZM14.2993 17.6998L15.3548 16.3039L14.0116 15.2883L12.9561 16.6842L11.9007 18.0801L13.2439 19.0957L14.2993 17.6998ZM12.9561 16.6842L14.3523 17.7393L14.8601 17.0672L13.4639 16.0122L12.0677 14.9572L11.5599 15.6292L12.9561 16.6842ZM13.4639 16.0122L14.8598 17.0677C15.6421 16.0331 16.0657 14.7716 16.0661 13.4745L14.3161 13.4739L12.5661 13.4733C12.5659 14.0088 12.3911 14.5296 12.0681 14.9567L13.4639 16.0122ZM14.3161 13.4739L16.0661 13.4745C16.0665 12.1774 15.6438 10.9155 14.8621 9.88041L13.4656 10.935L12.0691 11.9896C12.3918 12.4169 12.5663 12.9378 12.5661 13.4733L14.3161 13.4739ZM13.4656 10.935L14.8618 9.87999L14.354 9.20797L12.9578 10.263L11.5616 11.318L12.0694 11.9901L13.4656 10.935ZM12.9578 10.263L14.0123 11.6596L15.3563 10.6449L14.3018 9.24824L13.2474 7.85161L11.9033 8.86637L12.9578 10.263ZM5.05276 11.7898V10.0398C3.69525 10.0398 2.39334 10.5791 1.43343 11.539L2.67087 12.7764L3.9083 14.0138C4.21183 13.7103 4.62351 13.5398 5.05276 13.5398V11.7898ZM2.67087 12.7764L1.43343 11.539C0.473524 12.4989 -0.0657458 13.8008 -0.0657458 15.1583H1.68425H3.43425C3.43425 14.729 3.60477 14.3174 3.9083 14.0138L2.67087 12.7764ZM1.68425 15.1583V16.9083H9.3055V15.1583V13.4083H1.68425V15.1583ZM9.3055 15.1583H7.5555V16.8425H9.3055H11.0555V15.1583H9.3055ZM9.3055 16.8425V15.0925H0V16.8425V18.5925H9.3055V16.8425ZM0 16.8425H1.75V15.1583H0H-1.75V16.8425H0ZM0 15.1583H1.75C1.75 14.2823 2.09797 13.4423 2.71736 12.8229L1.47992 11.5854L0.242483 10.348C-1.03328 11.6238 -1.75 13.3541 -1.75 15.1583H0ZM1.47992 11.5854L2.71736 12.8229C3.33674 12.2035 4.17682 11.8555 5.05276 11.8555V10.1055V8.35553C3.24856 8.35553 1.51825 9.07224 0.242483 10.348L1.47992 11.5854ZM5.05276 10.1055V11.8555H9.2634V10.1055V8.35553H5.05276V10.1055ZM9.2634 10.1055H7.5134V11.7898H9.2634H11.0134V10.1055H9.2634ZM9.2634 11.7898V10.0398H5.05276V11.7898V13.5398H9.2634V11.7898ZM11.9498 11.0234L10.5529 12.0776L11.0607 12.7505L12.4576 11.6963L13.8544 10.6421L13.3466 9.96925L11.9498 11.0234ZM12.4576 11.6963L11.0611 12.751C11.2181 12.9589 11.3031 13.2124 11.303 13.4729L13.053 13.4733L14.803 13.4737C14.8032 12.4516 14.4701 11.4573 13.8541 10.6416L12.4576 11.6963ZM13.053 13.4733L11.303 13.4729C11.3029 13.7335 11.2179 13.9869 11.0608 14.1947L12.4567 15.2501L13.8527 16.3054C14.4691 15.49 14.8028 14.4959 14.803 13.4737L13.053 13.4733ZM12.4567 15.2501L11.0614 14.1939L10.5527 14.866L11.9481 15.9221L13.3435 16.9782L13.8521 16.3062L12.4567 15.2501ZM11.9481 15.9221L13.0036 14.5262L11.6604 13.5106L10.6049 14.9065L9.54945 16.3024L10.8926 17.318L11.9481 15.9221ZM10.6049 14.9065L12.0003 15.9626L12.5089 15.2906L11.1136 14.2345L9.71818 13.1783L9.20954 13.8503L10.6049 14.9065ZM11.1136 14.2345L12.5096 15.2897C12.9051 14.7665 13.119 14.1286 13.119 13.4728H11.369H9.61904C9.61904 13.3668 9.65361 13.2637 9.7175 13.1792L11.1136 14.2345ZM11.369 13.4728H13.119C13.119 12.8169 12.9051 12.179 12.5096 11.6558L11.1136 12.7111L9.7175 13.7663C9.65361 13.6818 9.61904 13.5787 9.61904 13.4728H11.369ZM11.1136 12.7111L12.5106 11.6571L12.0036 10.9851L10.6066 12.039L9.20954 13.093L9.7165 13.765L11.1136 12.7111ZM10.6066 12.039L11.662 13.4349L13.0052 12.4193L11.9498 11.0234L10.8943 9.62755L9.55114 10.6432L10.6066 12.039Z" fill="white" mask="url(#path-1-inside-1_252_13232)"/>
</svg>
