<svg width="22" height="24" viewBox="0 0 22 24" fill="none" xmlns="http://www.w3.org/2000/svg">
<path d="M8.68432 11.4991C8.23484 10.7159 8.01799 10.077 7.88746 9.42854C7.69378 8.47063 8.13694 7.53377 8.86958 6.93587C9.18011 6.68324 9.53485 6.76955 9.71801 7.09903L10.1317 7.84115C10.4591 8.42852 10.6233 8.72326 10.5907 9.03485C10.5591 9.34643 10.338 9.60012 9.89591 10.1085L8.68432 11.4991ZM8.68432 11.4991C9.63181 13.1227 10.9829 14.4738 12.6065 15.4213M12.6065 15.4213C13.3896 15.8707 14.0286 16.0876 14.677 16.2181C15.6349 16.4118 16.5718 15.9686 17.1697 15.236C17.4223 14.9255 17.336 14.5707 17.0065 14.3876L16.2655 13.9739C15.676 13.6465 15.3823 13.4823 15.0707 13.5149C14.7591 13.5465 14.5054 13.7675 13.997 14.2097L12.6065 15.4213ZM3.63161 5.21058H1M3.63161 11.5265H1M3.63161 17.8423H1M2.57897 9.42117C2.57897 5.45164 2.57897 3.46635 3.81267 2.2337C5.04637 1.00105 7.03061 1 11.0001 1H12.5791C16.5486 1 18.5339 1 19.7666 2.2337C20.9992 3.4674 21.0003 5.45164 21.0003 9.42117V13.6318C21.0003 17.6013 21.0003 19.5866 19.7666 20.8192C18.5329 22.0519 16.5486 22.0529 12.5791 22.0529H11.0001C7.03061 22.0529 5.04532 22.0529 3.81267 20.8192C2.58002 19.5855 2.57897 17.6013 2.57897 13.6318V9.42117Z" stroke="white" stroke-width="2" stroke-linecap="round" stroke-linejoin="round"/>
</svg>
