<svg width="16" height="22" viewBox="0 0 16 22" fill="none" xmlns="http://www.w3.org/2000/svg">
<path d="M10.1445 0.506836C10.3903 0.53066 10.6266 0.614982 10.832 0.751953C11.0374 0.888867 11.2058 1.07444 11.3223 1.29199C11.4387 1.50965 11.5 1.75316 11.5 2V3.16699H13.667C14.6789 3.16717 15.5 3.98808 15.5 5.00098V16.334C15.5 16.8201 15.3066 17.2861 14.9629 17.6299C14.6192 17.9736 14.1531 18.1669 13.667 18.167H11.5V19.334L11.4883 19.5186C11.4657 19.7012 11.4096 19.8788 11.3223 20.042C11.2058 20.2597 11.0374 20.445 10.832 20.582C10.6265 20.7191 10.3904 20.8033 10.1445 20.8271C9.89875 20.8509 9.65078 20.8137 9.42285 20.7188L1.0127 17.2139C0.860989 17.1506 0.730839 17.044 0.639648 16.9072C0.54845 16.7704 0.499986 16.6088 0.5 16.4443V4.88965C0.500026 4.72529 0.548534 4.56453 0.639648 4.42773C0.730848 4.29086 0.8609 4.18442 1.0127 4.12109L9.42285 0.615234C9.65077 0.520254 9.89877 0.483047 10.1445 0.506836ZM9.80762 1.53906L1.80762 4.87207L1.5 5.00098V16.334L1.80762 16.4619L9.80762 19.7959L10.5 20.084V1.25098L9.80762 1.53906ZM11.5 17.167H13.667C13.8879 17.1669 14.0997 17.0791 14.2559 16.9229C14.412 16.7666 14.5 16.5549 14.5 16.334V5.00098C14.5 4.77997 14.4121 4.56741 14.2559 4.41113C14.0997 4.255 13.8878 4.16708 13.667 4.16699H11.5V17.167Z" fill="white" stroke="white"/>
</svg>
