<svg width="13" height="16" viewBox="0 0 13 16" fill="none" xmlns="http://www.w3.org/2000/svg">
<path d="M3.775 9.725H8.675M3.775 11.825H6.225M8.325 3.775L5.525 6.575L4.125 5.175M11.125 0.625H1.325C1.13935 0.625 0.961301 0.69875 0.830025 0.830025C0.69875 0.961301 0.625 1.13935 0.625 1.325V13.925C0.625 14.1107 0.69875 14.2887 0.830025 14.42C0.961301 14.5513 1.13935 14.625 1.325 14.625H11.125C11.3107 14.625 11.4887 14.5513 11.62 14.42C11.7513 14.2887 11.825 14.1107 11.825 13.925V1.325C11.825 1.13935 11.7513 0.961301 11.62 0.830025C11.4887 0.69875 11.3107 0.625 11.125 0.625Z" stroke="white" stroke-width="1.25" stroke-linecap="round" stroke-linejoin="round"/>
</svg>
