<svg width="14" height="13" viewBox="0 0 14 13" fill="none" xmlns="http://www.w3.org/2000/svg">
<mask id="path-1-inside-1_213_8486" fill="white">
<path d="M0 1.75C0 1.28587 0.184374 0.840752 0.512563 0.512563C0.840752 0.184374 1.28587 0 1.75 0H8.75C9.21413 0 9.65925 0.184374 9.98744 0.512563C10.3156 0.840752 10.5 1.28587 10.5 1.75V7C10.5 7.46413 10.3156 7.90925 9.98744 8.23744C9.65925 8.56563 9.21413 8.75 8.75 8.75H1.75C1.28587 8.75 0.840752 8.56563 0.512563 8.23744C0.184374 7.90925 0 7.46413 0 7V1.75ZM1.75 0.875C1.51794 0.875 1.29538 0.967187 1.13128 1.13128C0.967187 1.29538 0.875 1.51794 0.875 1.75V7C0.875 7.23206 0.967187 7.45462 1.13128 7.61872C1.29538 7.78281 1.51794 7.875 1.75 7.875H8.75C8.98206 7.875 9.20462 7.78281 9.36872 7.61872C9.53281 7.45462 9.625 7.23206 9.625 7V1.75C9.625 1.51794 9.53281 1.29538 9.36872 1.13128C9.20462 0.967187 8.98206 0.875 8.75 0.875H1.75ZM3.5 10.5C3.19282 10.5 2.89105 10.4191 2.62503 10.2655C2.359 10.1119 2.13809 9.89103 1.9845 9.625H8.75C9.44619 9.625 10.1139 9.34844 10.6062 8.85616C11.0984 8.36387 11.375 7.69619 11.375 7V1.9845C11.641 2.13809 11.8619 2.359 12.0155 2.62503C12.1691 2.89105 12.25 3.19282 12.25 3.5V7C12.25 7.92826 11.8813 8.8185 11.2249 9.47487C10.5685 10.1313 9.67826 10.5 8.75 10.5H3.5ZM5.25 12.25C4.94282 12.25 4.64105 12.1691 4.37502 12.0155C4.109 11.8619 3.88809 11.641 3.7345 11.375H8.75C9.91032 11.375 11.0231 10.9141 11.8436 10.0936C12.6641 9.27312 13.125 8.16032 13.125 7V3.7345C13.391 3.88809 13.6119 4.109 13.7655 4.37502C13.9191 4.64105 14 4.94282 14 5.25V7C14 8.39239 13.4469 9.72774 12.4623 10.7123C11.4777 11.6969 10.1424 12.25 8.75 12.25H5.25Z"/>
</mask>
<path d="M0 1.75C0 1.28587 0.184374 0.840752 0.512563 0.512563C0.840752 0.184374 1.28587 0 1.75 0H8.75C9.21413 0 9.65925 0.184374 9.98744 0.512563C10.3156 0.840752 10.5 1.28587 10.5 1.75V7C10.5 7.46413 10.3156 7.90925 9.98744 8.23744C9.65925 8.56563 9.21413 8.75 8.75 8.75H1.75C1.28587 8.75 0.840752 8.56563 0.512563 8.23744C0.184374 7.90925 0 7.46413 0 7V1.75ZM1.75 0.875C1.51794 0.875 1.29538 0.967187 1.13128 1.13128C0.967187 1.29538 0.875 1.51794 0.875 1.75V7C0.875 7.23206 0.967187 7.45462 1.13128 7.61872C1.29538 7.78281 1.51794 7.875 1.75 7.875H8.75C8.98206 7.875 9.20462 7.78281 9.36872 7.61872C9.53281 7.45462 9.625 7.23206 9.625 7V1.75C9.625 1.51794 9.53281 1.29538 9.36872 1.13128C9.20462 0.967187 8.98206 0.875 8.75 0.875H1.75ZM3.5 10.5C3.19282 10.5 2.89105 10.4191 2.62503 10.2655C2.359 10.1119 2.13809 9.89103 1.9845 9.625H8.75C9.44619 9.625 10.1139 9.34844 10.6062 8.85616C11.0984 8.36387 11.375 7.69619 11.375 7V1.9845C11.641 2.13809 11.8619 2.359 12.0155 2.62503C12.1691 2.89105 12.25 3.19282 12.25 3.5V7C12.25 7.92826 11.8813 8.8185 11.2249 9.47487C10.5685 10.1313 9.67826 10.5 8.75 10.5H3.5ZM5.25 12.25C4.94282 12.25 4.64105 12.1691 4.37502 12.0155C4.109 11.8619 3.88809 11.641 3.7345 11.375H8.75C9.91032 11.375 11.0231 10.9141 11.8436 10.0936C12.6641 9.27312 13.125 8.16032 13.125 7V3.7345C13.391 3.88809 13.6119 4.109 13.7655 4.37502C13.9191 4.64105 14 4.94282 14 5.25V7C14 8.39239 13.4469 9.72774 12.4623 10.7123C11.4777 11.6969 10.1424 12.25 8.75 12.25H5.25Z" fill="white"/>
<path d="M1.75 0V-1.5V0ZM8.75 0V-1.5V0ZM0 7H-1.5H0ZM0.875 1.75H-0.625H0.875ZM0.875 7H-0.625H0.875ZM8.75 0.875V-0.625V0.875ZM3.5 10.5L3.49996 12H3.5V10.5ZM1.9845 9.625V8.125H-0.613576L0.685462 10.375L1.9845 9.625ZM8.75 9.625V11.125V9.625ZM11.375 1.9845L12.125 0.685462L9.875 -0.613576V1.9845H11.375ZM12.25 3.5H13.75V3.49996L12.25 3.5ZM12.25 7H13.75H12.25ZM8.75 10.5V12V10.5ZM5.25 12.25L5.24996 13.75H5.25V12.25ZM3.7345 11.375V9.875H1.13642L2.43546 12.125L3.7345 11.375ZM8.75 11.375V12.875V11.375ZM13.125 7H11.625H13.125ZM13.125 3.7345L13.875 2.43546L11.625 1.13642V3.7345H13.125ZM14 5.25H15.5V5.24996L14 5.25ZM0 1.75H1.5C1.5 1.6837 1.52634 1.62011 1.57322 1.57322L0.512563 0.512563L-0.548097 -0.548097C-1.15759 0.0613963 -1.5 0.888047 -1.5 1.75H0ZM0.512563 0.512563L1.57322 1.57322C1.62011 1.52634 1.6837 1.5 1.75 1.5V0V-1.5C0.888047 -1.5 0.0613963 -1.15759 -0.548097 -0.548097L0.512563 0.512563ZM1.75 0V1.5H8.75V0V-1.5H1.75V0ZM8.75 0V1.5C8.8163 1.5 8.87989 1.52634 8.92678 1.57322L9.98744 0.512563L11.0481 -0.548097C10.4386 -1.15759 9.61195 -1.5 8.75 -1.5V0ZM9.98744 0.512563L8.92678 1.57322C8.97366 1.62011 9 1.6837 9 1.75H10.5H12C12 0.888046 11.6576 0.0613961 11.0481 -0.548097L9.98744 0.512563ZM10.5 1.75H9V7H10.5H12V1.75H10.5ZM10.5 7H9C9 7.0663 8.97366 7.12989 8.92678 7.17678L9.98744 8.23744L11.0481 9.2981C11.6576 8.6886 12 7.86195 12 7H10.5ZM9.98744 8.23744L8.92678 7.17678C8.87989 7.22366 8.8163 7.25 8.75 7.25V8.75V10.25C9.61195 10.25 10.4386 9.90759 11.0481 9.2981L9.98744 8.23744ZM8.75 8.75V7.25H1.75V8.75V10.25H8.75V8.75ZM1.75 8.75V7.25C1.6837 7.25 1.62011 7.22366 1.57322 7.17678L0.512563 8.23744L-0.548097 9.2981C0.0613961 9.90759 0.888046 10.25 1.75 10.25V8.75ZM0.512563 8.23744L1.57322 7.17678C1.52634 7.12989 1.5 7.0663 1.5 7H0H-1.5C-1.5 7.86195 -1.15759 8.6886 -0.548097 9.2981L0.512563 8.23744ZM0 7H1.5V1.75H0H-1.5V7H0ZM1.75 0.875V-0.625C1.12011 -0.625 0.51602 -0.374777 0.0706214 0.0706215L1.13128 1.13128L2.19194 2.19194C2.07473 2.30915 1.91576 2.375 1.75 2.375V0.875ZM1.13128 1.13128L0.0706214 0.0706215C-0.374777 0.51602 -0.625 1.12011 -0.625 1.75H0.875H2.375C2.375 1.91576 2.30915 2.07473 2.19194 2.19194L1.13128 1.13128ZM0.875 1.75H-0.625V7H0.875H2.375V1.75H0.875ZM0.875 7H-0.625C-0.625 7.62989 -0.374777 8.23398 0.0706214 8.67938L1.13128 7.61872L2.19194 6.55806C2.30915 6.67527 2.375 6.83424 2.375 7H0.875ZM1.13128 7.61872L0.0706214 8.67938C0.51602 9.12478 1.12011 9.375 1.75 9.375V7.875V6.375C1.91576 6.375 2.07473 6.44085 2.19194 6.55806L1.13128 7.61872ZM1.75 7.875V9.375H8.75V7.875V6.375H1.75V7.875ZM8.75 7.875V9.375C9.37989 9.375 9.98398 9.12478 10.4294 8.67938L9.36872 7.61872L8.30806 6.55806C8.42527 6.44085 8.58424 6.375 8.75 6.375V7.875ZM9.36872 7.61872L10.4294 8.67938C10.8748 8.23398 11.125 7.62989 11.125 7H9.625H8.125C8.125 6.83424 8.19085 6.67527 8.30806 6.55806L9.36872 7.61872ZM9.625 7H11.125V1.75H9.625H8.125V7H9.625ZM9.625 1.75H11.125C11.125 1.12011 10.8748 0.51602 10.4294 0.0706215L9.36872 1.13128L8.30806 2.19194C8.19085 2.07473 8.125 1.91576 8.125 1.75H9.625ZM9.36872 1.13128L10.4294 0.0706215C9.98398 -0.374777 9.37989 -0.625 8.75 -0.625V0.875V2.375C8.58424 2.375 8.42527 2.30915 8.30806 2.19194L9.36872 1.13128ZM8.75 0.875V-0.625H1.75V0.875V2.375H8.75V0.875ZM3.5 10.5L3.50004 9C3.45615 9 3.41304 8.98845 3.37504 8.96651L2.62503 10.2655L1.87501 11.5646C2.36906 11.8498 2.92948 12 3.49996 12L3.5 10.5ZM2.62503 10.2655L3.37504 8.96651C3.33704 8.94456 3.30548 8.91301 3.28354 8.875L1.9845 9.625L0.685462 10.375C0.970701 10.869 1.38096 11.2793 1.87501 11.5646L2.62503 10.2655ZM1.9845 9.625V11.125H8.75V9.625V8.125H1.9845V9.625ZM8.75 9.625V11.125C9.84402 11.125 10.8932 10.6904 11.6668 9.91682L10.6062 8.85616L9.5455 7.7955C9.33452 8.00647 9.04837 8.125 8.75 8.125V9.625ZM10.6062 8.85616L11.6668 9.91682C12.4404 9.14323 12.875 8.09402 12.875 7H11.375H9.875C9.875 7.29837 9.75647 7.58452 9.5455 7.7955L10.6062 8.85616ZM11.375 7H12.875V1.9845H11.375H9.875V7H11.375ZM11.375 1.9845L10.625 3.28354C10.663 3.30548 10.6946 3.33704 10.7165 3.37504L12.0155 2.62503L13.3146 1.87501C13.0293 1.38096 12.619 0.970701 12.125 0.685462L11.375 1.9845ZM12.0155 2.62503L10.7165 3.37504C10.7384 3.41304 10.75 3.45615 10.75 3.50004L12.25 3.5L13.75 3.49996C13.75 2.92948 13.5998 2.36906 13.3146 1.87501L12.0155 2.62503ZM12.25 3.5H10.75V7H12.25H13.75V3.5H12.25ZM12.25 7H10.75C10.75 7.53043 10.5393 8.03914 10.1642 8.41421L11.2249 9.47487L12.2855 10.5355C13.2232 9.59785 13.75 8.32608 13.75 7H12.25ZM11.2249 9.47487L10.1642 8.41421C9.78914 8.78929 9.28043 9 8.75 9V10.5V12C10.0761 12 11.3479 11.4732 12.2855 10.5355L11.2249 9.47487ZM8.75 10.5V9H3.5V10.5V12H8.75V10.5ZM5.25 12.25L5.25004 10.75C5.20615 10.75 5.16304 10.7384 5.12504 10.7165L4.37502 12.0155L3.62501 13.3146C4.11906 13.5998 4.67948 13.75 5.24996 13.75L5.25 12.25ZM4.37502 12.0155L5.12504 10.7165C5.08704 10.6946 5.05548 10.663 5.03354 10.625L3.7345 11.375L2.43546 12.125C2.7207 12.619 3.13096 13.0293 3.62501 13.3146L4.37502 12.0155ZM3.7345 11.375V12.875H8.75V11.375V9.875H3.7345V11.375ZM8.75 11.375V12.875C10.3081 12.875 11.8025 12.256 12.9043 11.1543L11.8436 10.0936L10.7829 9.03293C10.2438 9.5721 9.5125 9.875 8.75 9.875V11.375ZM11.8436 10.0936L12.9043 11.1543C14.006 10.0525 14.625 8.55815 14.625 7H13.125H11.625C11.625 7.7625 11.3221 8.49376 10.7829 9.03293L11.8436 10.0936ZM13.125 7H14.625V3.7345H13.125H11.625V7H13.125ZM13.125 3.7345L12.375 5.03354C12.413 5.05548 12.4446 5.08704 12.4665 5.12504L13.7655 4.37502L15.0646 3.62501C14.7793 3.13096 14.369 2.7207 13.875 2.43546L13.125 3.7345ZM13.7655 4.37502L12.4665 5.12504C12.4884 5.16304 12.5 5.20615 12.5 5.25004L14 5.25L15.5 5.24996C15.5 4.67948 15.3498 4.11906 15.0646 3.62501L13.7655 4.37502ZM14 5.25H12.5V7H14H15.5V5.25H14ZM14 7H12.5C12.5 7.99456 12.1049 8.94839 11.4017 9.65165L12.4623 10.7123L13.523 11.773C14.7888 10.5071 15.5 8.79021 15.5 7H14ZM12.4623 10.7123L11.4017 9.65165C10.6984 10.3549 9.74456 10.75 8.75 10.75V12.25V13.75C10.5402 13.75 12.2571 13.0388 13.523 11.773L12.4623 10.7123ZM8.75 12.25V10.75H5.25V12.25V13.75H8.75V12.25Z" fill="white" mask="url(#path-1-inside-1_213_8486)"/>
</svg>
