<svg width="16" height="16" viewBox="0 0 16 16" fill="none" xmlns="http://www.w3.org/2000/svg">
<path d="M5.41511 14.3494C4.05066 13.8667 2.8694 12.9728 2.03395 11.791C1.1985 10.6091 0.749932 9.19734 0.75 7.75C0.75 6.83075 0.93106 5.92049 1.28284 5.07122C1.63463 4.22194 2.15024 3.45026 2.80025 2.80025C3.45026 2.15024 4.22194 1.63463 5.07122 1.28284C5.92049 0.93106 6.83075 0.75 7.75 0.75C8.66925 0.75 9.5795 0.93106 10.4288 1.28284C11.2781 1.63463 12.0497 2.15024 12.6997 2.80025C13.3498 3.45026 13.8654 4.22194 14.2172 5.07122C14.5689 5.92049 14.75 6.83075 14.75 7.75M7.75 3.86111V7.75M7.75 10.0833H9.30556C9.51183 10.0833 9.70967 10.1653 9.85553 10.3111C10.0014 10.457 10.0833 10.6548 10.0833 10.8611V11.6389C10.0833 11.8452 10.0014 12.043 9.85553 12.1889C9.70967 12.3347 9.51183 12.4167 9.30556 12.4167H8.52778C8.3215 12.4167 8.12367 12.4986 7.97781 12.6445C7.83194 12.7903 7.75 12.9882 7.75 13.1944V13.9722C7.75 14.1785 7.83194 14.3763 7.97781 14.5222C8.12367 14.6681 8.3215 14.75 8.52778 14.75H10.0833M12.4167 10.0833V11.6389C12.4167 11.8452 12.4986 12.043 12.6445 12.1889C12.7903 12.3347 12.9882 12.4167 13.1944 12.4167H13.9722M14.75 10.0833V14.75" stroke="white" stroke-width="1.5" stroke-linecap="round" stroke-linejoin="round"/>
</svg>
