<svg width="14" height="14" viewBox="0 0 14 14" fill="none" xmlns="http://www.w3.org/2000/svg">
<path d="M14 9.48388V8.58065H13.0516C12.9929 8.29802 12.8805 8.02928 12.7206 7.78897L13.3935 7.11607L12.7549 6.47749L12.082 7.15039C11.8417 6.99062 11.5729 6.8784 11.2903 6.81981V5.87097H10.3871V6.81981C10.1045 6.8784 9.83577 6.99062 9.59542 7.15039L8.92252 6.47749L8.28394 7.11607L8.95684 7.78897C8.79691 8.02928 8.68454 8.29802 8.62581 8.58065H7.67742V9.48388H8.62581C8.68452 9.77155 8.79923 10.0389 8.95639 10.2756L8.28349 10.9485L8.92207 11.587L9.59497 10.9141C9.83542 11.0741 10.1043 11.1865 10.3871 11.2452V12.1936H11.2903V11.2452C11.5729 11.1866 11.8417 11.0744 12.082 10.9146L12.7549 11.5875L13.3935 10.9489L12.7206 10.276C12.8806 10.0356 12.9929 9.76666 13.0516 9.48388H14ZM10.8387 10.3871C10.4794 10.3871 10.1348 10.2444 9.8807 9.99028C9.62662 9.7362 9.48388 9.39159 9.48388 9.03226C9.48388 8.67294 9.62662 8.32833 9.8807 8.07425C10.1348 7.82017 10.4794 7.67742 10.8387 7.67742C11.198 7.67742 11.5427 7.82017 11.7967 8.07425C12.0508 8.32833 12.1936 8.67294 12.1936 9.03226C12.1936 9.39159 12.0508 9.7362 11.7967 9.99028C11.5427 10.2444 11.198 10.3871 10.8387 10.3871Z" fill="white"/>
<path d="M9.48388 2.25807C9.48388 1.01297 8.47091 0 7.22581 0C6.42194 0 5.67271 0.432645 5.27033 1.12903C5.1265 1.37932 5.03005 1.65397 4.98581 1.93923C4.45327 1.55932 3.81546 1.35503 3.16129 1.35484C1.41807 1.35484 0 2.7729 0 4.51613C0.000571825 5.0949 0.16002 5.66241 0.460961 6.15678C0.761903 6.65116 1.19279 7.05343 1.70665 7.31975C1.21936 7.73433 0.903226 8.344 0.903226 9.03226C0.903226 10.2774 1.91619 11.2903 3.16129 11.2903C3.49278 11.2903 3.80574 11.2145 4.08936 11.0853C4.21445 12.213 5.16194 13.0968 6.32258 13.0968C6.61925 13.0976 6.91313 13.0396 7.18723 12.9261C7.46133 12.8126 7.71021 12.6459 7.91949 12.4356L7.28046 11.7966C7.15497 11.9228 7.0057 12.0229 6.84128 12.091C6.67687 12.1592 6.50056 12.194 6.32258 12.1936C5.57562 12.1936 4.96774 11.5857 4.96774 10.8387C4.96774 10.0917 5.57562 9.48388 6.32258 9.48388V8.58065C5.99065 8.58065 5.67813 8.65697 5.39452 8.78568C5.33075 8.21604 5.05273 7.69198 4.61684 7.31975C5.13053 7.05331 5.56123 6.65098 5.86201 6.15661C6.16279 5.66225 6.3221 5.09481 6.32258 4.51613C6.32258 4.44974 6.31626 4.38471 6.3122 4.31923C6.5922 4.44387 6.9002 4.51613 7.22581 4.51613C8.47091 4.51613 9.48388 3.50316 9.48388 2.25807ZM6.05162 1.58065C6.17095 1.37486 6.3422 1.204 6.54825 1.08513C6.75429 0.966253 6.98793 0.90353 7.22581 0.903226C7.97278 0.903226 8.58065 1.5111 8.58065 2.25807C8.58065 3.00503 7.97278 3.61291 7.22581 3.61291C6.47884 3.61291 5.87097 3.00503 5.87097 2.25807H5.85742C5.87368 1.99794 5.9351 1.78297 6.05162 1.58065ZM4.51613 9.03226C4.51613 9.77923 3.90826 10.3871 3.16129 10.3871C2.41432 10.3871 1.80645 9.77923 1.80645 9.03226C1.80645 8.2853 2.41432 7.67742 3.16129 7.67742C3.90826 7.67742 4.51613 8.2853 4.51613 9.03226ZM3.16129 6.7742C1.91619 6.7742 0.903226 5.76123 0.903226 4.51613C0.903226 3.27103 1.91619 2.25807 3.16129 2.25807C4.40639 2.25807 5.41936 3.27103 5.41936 4.51613C5.41936 5.76123 4.40639 6.7742 3.16129 6.7742Z" fill="white"/>
</svg>
