<svg width="16" height="18" viewBox="0 0 16 18" fill="none" xmlns="http://www.w3.org/2000/svg">
<path d="M6.58391 0.75V2.30571M8.91748 0.75V2.30571M4.63927 4.25035H3.08356M4.63927 6.58391H3.08356M12.4178 4.25035H10.8621M12.4178 6.58391H10.8621M1.91678 13.9735C2.27926 13.9735 2.4605 13.9735 2.60363 14.0334C2.79399 14.1122 2.94533 14.2633 3.02445 14.4535C3.08356 14.5966 3.08356 14.7778 3.08356 15.1403C3.08356 15.5028 3.08356 15.684 3.02367 15.8272C2.94491 16.0175 2.79384 16.1689 2.60363 16.248C2.4605 16.3071 2.27926 16.3071 1.91678 16.3071C1.5543 16.3071 1.37306 16.3071 1.22994 16.248C1.03957 16.1692 0.888232 16.0174 0.809117 15.8272C0.75 15.684 0.75 15.5028 0.75 15.1403C0.75 14.7778 0.75 14.5966 0.809895 14.4535C0.888658 14.2631 1.03972 14.1118 1.22994 14.0327C1.37306 13.9735 1.5543 13.9735 1.91678 13.9735ZM1.91678 13.9735C1.91678 12.8814 1.91678 12.3346 2.17892 11.9426C2.29245 11.7726 2.43836 11.6267 2.6083 11.5132C3.00033 11.251 3.54717 11.251 4.63927 11.251H10.8621C11.9542 11.251 12.5011 11.251 12.8931 11.5132C13.0627 11.6267 13.2089 11.773 13.3225 11.9426C13.5846 12.3346 13.5846 12.8814 13.5846 13.9735M7.75069 13.9735C8.11317 13.9735 8.29441 13.9735 8.43754 14.0334C8.6279 14.1122 8.77924 14.2633 8.85836 14.4535C8.91748 14.5966 8.91748 14.7778 8.91748 15.1403C8.91748 15.5028 8.91748 15.684 8.85758 15.8272C8.77882 16.0175 8.62776 16.1689 8.43754 16.248C8.29441 16.3071 8.11317 16.3071 7.75069 16.3071C7.38821 16.3071 7.20697 16.3071 7.06385 16.248C6.87349 16.1692 6.72214 16.0174 6.64303 15.8272C6.58391 15.684 6.58391 15.5028 6.58391 15.1403C6.58391 14.7778 6.58391 14.5966 6.64381 14.4535C6.72257 14.2631 6.87363 14.1118 7.06385 14.0327C7.20697 13.9735 7.38821 13.9735 7.75069 13.9735ZM7.75069 13.9735V8.52855M13.5846 13.9735C13.9471 13.9735 14.1283 13.9735 14.2715 14.0334C14.4618 14.1122 14.6132 14.2633 14.6923 14.4535C14.7514 14.5966 14.7514 14.7778 14.7514 15.1403C14.7514 15.5028 14.7514 15.684 14.6915 15.8272C14.6127 16.0175 14.4617 16.1689 14.2715 16.248C14.1283 16.3071 13.9471 16.3071 13.5846 16.3071C13.2221 16.3071 13.0409 16.3071 12.8978 16.248C12.7074 16.1692 12.5561 16.0174 12.4769 15.8272C12.4178 15.684 12.4178 15.5028 12.4178 15.1403C12.4178 14.7778 12.4178 14.5966 12.4777 14.4535C12.5565 14.2631 12.7075 14.1118 12.8978 14.0327C13.0409 13.9735 13.2221 13.9735 13.5846 13.9735ZM8.78757 2.30571H6.71381C5.73605 2.30571 5.246 2.30571 4.94264 2.60907C4.63927 2.91399 4.63927 3.40249 4.63927 4.38103V6.45479C4.63927 7.43255 4.63927 7.92182 4.94264 8.22596C5.24678 8.52933 5.73605 8.52933 6.71381 8.52933H8.78757C9.76534 8.52933 10.2546 8.52933 10.5587 8.22596C10.8621 7.92182 10.8621 7.43255 10.8621 6.45479V4.38025C10.8621 3.40249 10.8621 2.91321 10.5587 2.60985C10.2546 2.30571 9.76534 2.30571 8.78757 2.30571Z" stroke="white" stroke-width="1.5" stroke-linecap="round" stroke-linejoin="round"/>
</svg>
