<svg width="14" height="13" viewBox="0 0 14 13" fill="none" xmlns="http://www.w3.org/2000/svg">
<path d="M12.6013 0H1.40014C0.627962 0 0 0.627962 0 1.40014V11.2011C0 11.9733 0.627962 12.6012 1.40014 12.6012H12.6013C13.3734 12.6012 14.0014 11.9733 14.0014 11.2011V1.40014C14.0014 0.627962 13.3734 0 12.6013 0ZM1.40014 11.2011V2.80028H12.6013L12.6027 11.2011H1.40014Z" fill="white"/>
<path d="M5.10561 4.40554L2.51045 7.00069L5.10561 9.59585L6.0955 8.60595L4.49025 7.00069L6.0955 5.39543L5.10561 4.40554ZM8.89578 4.40554L7.90588 5.39543L9.51114 7.00069L7.90588 8.60595L8.89578 9.59585L11.4909 7.00069L8.89578 4.40554Z" fill="white"/>
</svg>
