<svg width="18" height="18" viewBox="0 0 18 18" fill="none" xmlns="http://www.w3.org/2000/svg">
<path d="M8.875 2.88635C8.87797 2.38598 8.69321 1.90269 8.35722 1.53189C8.02123 1.1611 7.55843 0.929756 7.06018 0.883548C6.56194 0.83734 6.06449 0.979624 5.66603 1.28231C5.26758 1.58499 4.9971 2.02607 4.908 2.51845C4.64435 2.56784 4.39333 2.66978 4.1699 2.8182C3.94646 2.96661 3.75516 3.15847 3.60741 3.38234C3.45965 3.60622 3.35845 3.85753 3.30983 4.12133C3.26121 4.38512 3.26617 4.656 3.3244 4.91784C2.96342 4.98192 2.62701 5.14402 2.35195 5.38641C2.07688 5.6288 1.87376 5.94215 1.76478 6.29221C1.6558 6.64226 1.64516 7.01554 1.73403 7.37123C1.8229 7.72692 2.00785 8.05133 2.26867 8.30899C1.83 8.51151 1.4627 8.84174 1.21482 9.25647C0.966951 9.67119 0.850058 10.1511 0.879443 10.6334C0.908828 11.1156 1.08312 11.5778 1.37952 11.9593C1.67591 12.3409 2.08059 12.6241 2.5406 12.7719C2.45277 13.1037 2.45183 13.4525 2.53787 13.7848C2.62391 14.117 2.79403 14.4215 3.03186 14.669C3.26969 14.9165 3.56722 15.0986 3.8958 15.1977C4.22439 15.2969 4.57298 15.3098 4.908 15.2352C4.99057 15.697 5.23289 16.1151 5.59256 16.4163C5.95224 16.7175 6.40637 16.8826 6.8755 16.8828C7.84326 16.8828 8.875 16.291 8.875 14.8833M8.875 2.88635C8.87203 2.38598 9.05679 1.90269 9.39278 1.53189C9.72877 1.1611 10.1916 0.929756 10.6898 0.883548C11.1881 0.83734 11.6855 0.979624 12.084 1.28231C12.4824 1.58499 12.7529 2.02607 12.842 2.51845C13.1056 2.56784 13.3567 2.66978 13.5801 2.8182C13.8035 2.96661 13.9948 3.15847 14.1426 3.38234C14.2903 3.60622 14.3916 3.85753 14.4402 4.12133C14.4888 4.38512 14.4838 4.656 14.4256 4.91784C14.7866 4.98192 15.123 5.14402 15.3981 5.38641C15.6731 5.6288 15.8762 5.94215 15.9852 6.29221C16.0942 6.64226 16.1048 7.01554 16.016 7.37123C15.9271 7.72692 15.7421 8.05133 15.4813 8.30899C15.92 8.51151 16.2873 8.84174 16.5352 9.25647C16.783 9.67119 16.8999 10.1511 16.8706 10.6334C16.8412 11.1156 16.6669 11.5778 16.3705 11.9593C16.0741 12.3409 15.6694 12.6241 15.2094 12.7719C15.2972 13.1037 15.2982 13.4525 15.2121 13.7848C15.1261 14.117 14.956 14.4215 14.7181 14.669C14.4803 14.9165 14.1828 15.0986 13.8542 15.1977C13.5256 15.2969 13.177 15.3098 12.842 15.2352C12.7594 15.697 12.5171 16.1151 12.1574 16.4163C11.7978 16.7175 11.3436 16.8826 10.8745 16.8828C9.90674 16.8828 8.875 16.291 8.875 14.8833M8.875 2.88635V3.28625M8.875 14.8833V14.4834M8.875 10.4844C9.75843 10.4844 10.4746 9.76827 10.4746 8.88484C10.4746 8.00141 9.75843 7.28524 8.875 7.28524M8.875 10.4844C7.99157 10.4844 7.2754 9.76827 7.2754 8.88484C7.2754 8.00141 7.99157 7.28524 8.875 7.28524M8.875 10.4844V11.2842M8.875 7.28524V6.48545M10.9545 7.68514L10.2586 8.08504M7.49135 9.68464L6.79552 10.0845M10.9545 10.0845L10.2586 9.68464M7.49135 8.08504L6.79552 7.68514" stroke="white" stroke-width="1.75" stroke-linecap="round" stroke-linejoin="round"/>
</svg>
