<svg width="14" height="11" viewBox="0 0 14 11" fill="none" xmlns="http://www.w3.org/2000/svg">
<path d="M1.864 10.9279H12.1388C13.3795 10.9279 14.0028 10.3107 14.0028 9.08799V1.83994C14.0028 0.617195 13.3795 0 12.1388 0H1.864C0.629352 0.00025326 0 0.611624 0 1.83994V9.08825C0 10.3168 0.629352 10.9279 1.864 10.9279ZM0.955805 1.88806C0.955805 1.27061 1.28808 0.956058 1.88172 0.956058H12.121C12.7086 0.956058 13.047 1.27061 13.047 1.88806V3.5383H0.955805V1.88806ZM12.121 9.97213H7.4494V4.38672H13.047V9.04038C13.047 9.65783 12.7086 9.97213 12.121 9.97213ZM1.88172 9.97238C1.28808 9.97238 0.955805 9.65783 0.955805 9.04038V4.38672H6.55311V9.97238H1.88172Z" fill="white"/>
</svg>
