<svg width="16" height="14" viewBox="0 0 16 14" fill="none" xmlns="http://www.w3.org/2000/svg">
<path d="M7.05066 1.45007H3.20026C2.92175 1.45007 2.65465 1.56071 2.45772 1.75764C2.26078 1.95458 2.15015 2.22168 2.15015 2.50018V9.85096H13.3513V6.00055M10.9011 0.75L9.50092 2.15015L10.9011 3.55029M13.0013 0.75L14.4014 2.15015L13.0013 3.55029M0.75 9.85096H14.7515V10.551C14.7515 11.108 14.5302 11.6422 14.1363 12.0361C13.7425 12.43 13.2083 12.6513 12.6512 12.6513H2.85022C2.29321 12.6513 1.75901 12.43 1.36514 12.0361C0.971273 11.6422 0.75 11.108 0.75 10.551V9.85096Z" stroke="white" stroke-width="1.5" stroke-linecap="round" stroke-linejoin="round"/>
</svg>
