<svg width="14" height="19" viewBox="0 0 14 19" fill="none" xmlns="http://www.w3.org/2000/svg">
<path d="M0 17.6411V15.6611C0 15.3915 0.0916174 15.1647 0.274853 14.9809C0.458088 14.7982 0.684833 14.7069 0.95509 14.7069H1.94419V11.2414H0.954171C0.684527 11.2414 0.457781 11.1498 0.273933 10.9665C0.0913111 10.7833 0 10.5566 0 10.2863V8.30717C0 8.03753 0.0916174 7.81078 0.274853 7.62694C0.458088 7.44431 0.684833 7.353 0.95509 7.353H1.94419V3.88747H0.954171C0.684527 3.88747 0.457781 3.79585 0.273933 3.61261C0.0913111 3.42938 0 3.20263 0 2.93238V0.954171C0 0.684528 0.0916174 0.457782 0.274853 0.273934C0.458088 0.0913112 0.684833 0 0.95509 0H3.85345C4.1231 0 4.34984 0.0916175 4.53369 0.274853C4.71631 0.458088 4.80762 0.684834 4.80762 0.95509V2.93421C4.80762 3.20386 4.71601 3.4306 4.53277 3.61445C4.34954 3.79707 4.12279 3.88839 3.85254 3.88839H2.86343V7.35392H3.85345C4.1231 7.35392 4.34984 7.44554 4.53369 7.62877C4.71631 7.81201 4.80762 8.03876 4.80762 8.30901V8.83849H9.1924V8.30809C9.1924 8.03845 9.28402 7.8117 9.46725 7.62785C9.65049 7.44523 9.87723 7.35392 10.1475 7.35392H13.0459C13.3155 7.35392 13.5422 7.44554 13.7261 7.62877C13.9087 7.81201 14 8.03876 14 8.30901V10.2881C14 10.5578 13.9084 10.7845 13.7252 10.9684C13.5419 11.151 13.3152 11.2423 13.0449 11.2423H10.1466C9.87693 11.2423 9.65018 11.1507 9.46633 10.9675C9.28371 10.7842 9.1924 10.5575 9.1924 10.2872V9.75681H4.80762V10.2872C4.80762 10.5569 4.71601 10.7836 4.53277 10.9675C4.34954 11.1501 4.12279 11.2414 3.85254 11.2414H2.86343V14.7069H3.85345C4.1231 14.7069 4.34984 14.7985 4.53369 14.9818C4.71631 15.165 4.80762 15.3918 4.80762 15.662V17.6411C4.80762 17.9108 4.71601 18.1375 4.53277 18.3214C4.34954 18.504 4.12279 18.5953 3.85254 18.5953H0.95509C0.685446 18.5953 0.458701 18.5037 0.274853 18.3205C0.0922302 18.1372 0 17.9114 0 17.6411ZM0.91924 17.6761H3.88838V15.6262H0.91924V17.6761ZM0.91924 10.3221H3.88838V8.27224H0.91924V10.3221ZM10.1116 10.3221H13.0808V8.27224H10.1116V10.3221ZM0.91924 2.96823H3.88838V0.918321H0.91924V2.96823Z" fill="white"/>
</svg>
