<svg width="16" height="16" viewBox="0 0 16 16" fill="none" xmlns="http://www.w3.org/2000/svg">
<path d="M1.7748 1.7748L1.24483 1.24411L1.24429 1.24465L1.7748 1.7748ZM13.7245 1.7748L14.255 1.24465L14.2548 1.24447L13.7245 1.7748ZM13.7245 13.7245L13.1944 13.194L13.1938 13.1945L13.7245 13.7245ZM1.7748 13.7245L2.30513 13.1942L2.30495 13.194L1.7748 13.7245ZM4.09307 9.89272C3.80739 9.5928 3.33265 9.58125 3.03272 9.86693C2.73279 10.1526 2.72125 10.6273 3.00693 10.9273L3.55 10.41L4.09307 9.89272ZM4.3501 11.25L3.80703 11.7673C3.94859 11.9159 4.14488 12 4.35013 12C4.55539 12 4.75167 11.9159 4.89322 11.7672L4.3501 11.25ZM6.89312 9.66723C7.17877 9.36727 7.16718 8.89254 6.86723 8.60688C6.56727 8.32123 6.09254 8.33282 5.80688 8.63277L6.35 9.15L6.89312 9.66723ZM4.09307 4.99272C3.80739 4.6928 3.33265 4.68125 3.03272 4.96693C2.73279 5.25261 2.72125 5.72735 3.00693 6.02728L3.55 5.51L4.09307 4.99272ZM4.3501 6.35L3.80703 6.86728C3.94859 7.0159 4.14488 7.10001 4.35013 7.1C4.55539 7.09999 4.75167 7.01586 4.89322 6.86723L4.3501 6.35ZM6.89312 4.76723C7.17877 4.46727 7.16718 3.99254 6.86723 3.70688C6.56727 3.42123 6.09254 3.43282 5.80688 3.73277L6.35 4.25L6.89312 4.76723ZM8.45 4.9C8.03579 4.9 7.7 5.23579 7.7 5.65C7.7 6.06421 8.03579 6.4 8.45 6.4V5.65V4.9ZM11.95 6.4C12.3642 6.4 12.7 6.06421 12.7 5.65C12.7 5.23579 12.3642 4.9 11.95 4.9V5.65V6.4ZM8.45 9.8C8.03579 9.8 7.7 10.1358 7.7 10.55C7.7 10.9642 8.03579 11.3 8.45 11.3V10.55V9.8ZM11.95 11.3C12.3642 11.3 12.7 10.9642 12.7 10.55C12.7 10.1358 12.3642 9.8 11.95 9.8V10.55V11.3ZM0.75 7.75H1.5C1.5 6.07891 1.50159 4.90101 1.62142 4.00944C1.73834 3.13943 1.95536 2.65514 2.30531 2.30495L1.7748 1.7748L1.24429 1.24465C0.569445 1.91996 0.274056 2.77337 0.134783 3.80964C-0.00159162 4.82434 0 6.12129 0 7.75H0.75ZM1.7748 1.7748L2.30477 2.30549C2.65541 1.95533 3.13987 1.73833 4.00971 1.62142C4.90118 1.50159 6.0789 1.5 7.75 1.5V0.75V0C6.1213 0 4.82452 -0.00159192 3.80989 0.134784C2.77363 0.274068 1.92039 0.569467 1.24483 1.24411L1.7748 1.7748ZM7.75 0.75V1.5C9.4211 1.5 10.599 1.50159 11.4905 1.62142C12.3604 1.73834 12.8444 1.95534 13.1942 2.30513L13.7245 1.7748L14.2548 1.24447C13.5798 0.569459 12.7265 0.274056 11.6903 0.134784C10.6757 -0.00159198 9.3787 0 7.75 0V0.75ZM13.7245 1.7748L13.194 2.30495C13.5444 2.65561 13.7615 3.14003 13.8785 4.00978C13.9984 4.90121 14 6.07889 14 7.75H14.75H15.5C15.5 6.12131 15.5016 4.82449 15.3651 3.80982C15.2257 2.77347 14.9301 1.92019 14.255 1.24465L13.7245 1.7748ZM14.75 7.75H14C14 9.42111 13.9984 10.599 13.8785 11.4904C13.7615 12.3602 13.5444 12.8442 13.1944 13.194L13.7245 13.7245L14.2546 14.255C14.9301 13.58 15.2257 12.7266 15.3651 11.6904C15.5016 10.6757 15.5 9.37869 15.5 7.75H14.75ZM13.7245 13.7245L13.1938 13.1945C12.8444 13.5444 12.3607 13.7615 11.4907 13.8785C10.5991 13.9984 9.42111 14 7.75 14V14.75V15.5C9.37869 15.5 10.6759 15.5016 11.6906 15.3651C12.7269 15.2258 13.5805 14.9301 14.2552 14.2545L13.7245 13.7245ZM7.75 14.75V14C6.07889 14 4.90103 13.9984 4.00951 13.8785C3.13959 13.7615 2.65535 13.5444 2.30513 13.1942L1.7748 13.7245L1.24447 14.2548C1.91976 14.9301 2.77321 15.2257 3.80957 15.3651C4.82432 15.5016 6.12131 15.5 7.75 15.5V14.75ZM1.7748 13.7245L2.30495 13.194C1.95536 12.8446 1.73836 12.3608 1.62142 11.4907C1.50159 10.5992 1.5 9.4211 1.5 7.75H0.75H0C0 9.3787 -0.00159174 10.6758 0.134783 11.6905C0.274044 12.7267 0.569436 13.5803 1.24465 14.255L1.7748 13.7245ZM3.55 10.41L3.00693 10.9273L3.80703 11.7673L4.3501 11.25L4.89317 10.7327L4.09307 9.89272L3.55 10.41ZM4.3501 11.25L4.89322 11.7672L6.89312 9.66723L6.35 9.15L5.80688 8.63277L3.80698 10.7328L4.3501 11.25ZM3.55 5.51L3.00693 6.02728L3.80703 6.86728L4.3501 6.35L4.89317 5.83273L4.09307 4.99272L3.55 5.51ZM4.3501 6.35L4.89322 6.86723L6.89312 4.76723L6.35 4.25L5.80688 3.73277L3.80698 5.83277L4.3501 6.35ZM8.45 5.65V6.4H11.95V5.65V4.9H8.45V5.65ZM8.45 10.55V11.3H11.95V10.55V9.8H8.45V10.55Z" fill="white"/>
</svg>
