<svg width="20" height="19" viewBox="0 0 20 19" fill="none" xmlns="http://www.w3.org/2000/svg">
<path d="M0 3.09053C0 2.27087 0.325608 1.48478 0.905194 0.905194C1.48478 0.325608 2.27087 0 3.09053 0H14.0262C14.8459 0 15.632 0.325608 16.2116 0.905194C16.7912 1.48478 17.1168 2.27087 17.1168 3.09053V5.7151C16.6395 5.66549 16.1574 5.69635 15.6904 5.80639V4.75466H1.4264V14.0262C1.4264 14.9448 2.17193 15.6904 3.09053 15.6904H10.6837L10.2643 16.4169C10.1385 16.6343 10.0486 16.8707 9.99809 17.1168H3.09053C2.27087 17.1168 1.48478 16.7912 0.905194 16.2116C0.325608 15.632 0 14.8459 0 14.0262V3.09053ZM3.09053 1.4264C2.64917 1.4264 2.22589 1.60172 1.91381 1.91381C1.60172 2.22589 1.4264 2.64917 1.4264 3.09053V3.32826H15.6904V3.09053C15.6904 2.64917 15.515 2.22589 15.203 1.91381C14.8909 1.60172 14.4676 1.4264 14.0262 1.4264H3.09053ZM16.9808 6.65652C16.3466 6.59703 15.7087 6.72099 15.1429 7.01365C14.5771 7.30631 14.1073 7.75535 13.7895 8.30733C13.4694 8.86109 13.3157 9.49533 13.3468 10.1342C13.3778 10.773 13.5922 11.3893 13.9644 11.9095L11.0879 16.8923C10.9175 17.21 10.8774 17.5815 10.9762 17.9282C11.0749 18.2749 11.3048 18.5695 11.6169 18.7497C11.9291 18.9299 12.2992 18.9815 12.6488 18.8936C12.9984 18.8057 13.3001 18.5852 13.4899 18.2788L16.3712 13.2864C17.0304 13.3463 17.6925 13.2082 18.2729 12.8899C18.8532 12.5715 19.3254 12.0874 19.6292 11.4993C19.933 10.9112 20.0546 10.2459 19.9783 9.58841C19.9021 8.9309 19.6315 8.31105 19.2012 7.8081L17.6322 10.5259C17.5605 10.6544 17.464 10.7673 17.3483 10.8582C17.2326 10.9491 17.0999 11.016 16.9581 11.0552C16.8163 11.0943 16.6681 11.1048 16.5221 11.0862C16.3762 11.0675 16.2354 11.02 16.108 10.9464C15.9806 10.8729 15.8691 10.7747 15.7799 10.6576C15.6908 10.5405 15.6259 10.4069 15.5889 10.2645C15.5519 10.1221 15.5435 9.97376 15.5644 9.82811C15.5852 9.68247 15.6349 9.54242 15.7103 9.41612L17.2794 6.69836C17.1805 6.67988 17.0809 6.66592 16.9808 6.65652ZM7.89558 6.88759C7.95892 6.95664 8.00804 7.03749 8.04012 7.12552C8.0722 7.21355 8.08663 7.30704 8.08256 7.40065C8.0785 7.49426 8.05603 7.58615 8.01645 7.67107C7.97686 7.75599 7.92092 7.83228 7.85184 7.89558L5.57246 9.98478L7.85184 12.074C7.99131 12.2018 8.07427 12.3799 8.08247 12.5689C8.09067 12.7579 8.02345 12.9425 7.89558 13.082C7.76771 13.2214 7.58968 13.3044 7.40065 13.3126C7.21161 13.3208 7.02706 13.2536 6.88759 13.1257L4.0348 10.5106C3.96187 10.4438 3.90364 10.3626 3.8638 10.272C3.82396 10.1815 3.80339 10.0837 3.80339 9.98478C3.80339 9.88587 3.82396 9.78804 3.8638 9.69751C3.90364 9.60698 3.96187 9.52573 4.0348 9.45891L6.88759 6.84385C6.95664 6.78051 7.03749 6.73139 7.12552 6.69931C7.21355 6.66723 7.30704 6.65281 7.40065 6.65687C7.49426 6.66093 7.58615 6.6834 7.67107 6.72299C7.75599 6.76258 7.83228 6.81851 7.89558 6.88759ZM10.7046 13.1257L12.6255 11.3646C12.3162 10.4685 12.3135 9.4951 12.6179 8.59737L10.7046 6.84385C10.6356 6.78054 10.5547 6.73145 10.4667 6.69938C10.3787 6.66731 10.2852 6.6529 10.1916 6.65696C10.098 6.66102 10.0061 6.68348 9.92117 6.72305C9.83625 6.76263 9.75996 6.81854 9.69664 6.88759C9.63333 6.95665 9.58424 7.0375 9.55217 7.12553C9.52011 7.21356 9.50569 7.30705 9.50976 7.40065C9.51382 7.49425 9.53627 7.58613 9.57585 7.67105C9.61542 7.75597 9.67133 7.83227 9.74039 7.89558L12.0198 9.98478L9.74039 12.074C9.60092 12.2018 9.51796 12.3799 9.50976 12.5689C9.50155 12.7579 9.56878 12.9425 9.69664 13.082C9.82451 13.2214 10.0025 13.3044 10.1916 13.3126C10.3806 13.3208 10.5652 13.2536 10.7046 13.1257Z" fill="white"/>
</svg>
