<svg width="18" height="18" viewBox="0 0 18 18" fill="none" xmlns="http://www.w3.org/2000/svg">
<path d="M3.2757 15.5853H5.08369C5.89168 15.5853 6.71008 15.6701 7.49647 15.8317C8.90046 16.1201 10.3451 16.1521 11.7604 15.9261C12.4548 15.8141 13.1364 15.6421 13.754 15.3445C14.3108 15.0749 14.9932 14.6965 15.4516 14.2717C15.9092 13.8477 16.386 13.1541 16.7236 12.6117C17.0148 12.1461 16.874 11.5757 16.4148 11.2293C16.1568 11.0416 15.8459 10.9405 15.5268 10.9405C15.2077 10.9405 14.8969 11.0416 14.6388 11.2293L13.1932 12.3213C12.6332 12.7453 12.0212 13.1349 11.2924 13.2509C11.2044 13.2645 11.1124 13.2773 11.0164 13.2885M11.0164 13.2885C10.9871 13.2919 10.9578 13.2951 10.9284 13.2981M11.0164 13.2885C11.1445 13.2539 11.2619 13.1879 11.358 13.0965C11.4786 12.9922 11.577 12.8648 11.6476 12.7219C11.7181 12.5789 11.7592 12.4233 11.7686 12.2642C11.778 12.1051 11.7555 11.9457 11.7023 11.7954C11.649 11.6452 11.5663 11.5071 11.4588 11.3893C11.3546 11.2736 11.2332 11.1746 11.0988 11.0957C8.86126 9.76053 5.37889 10.7773 3.2757 12.2693M11.0164 13.2885C10.9875 13.2948 10.958 13.298 10.9284 13.2981M10.9284 13.2981C10.446 13.3466 9.95993 13.3477 9.47726 13.3013M7.96447 1.96539C8.37007 1.2382 8.57247 0.875 8.87566 0.875C9.17886 0.875 9.38126 1.2382 9.78686 1.96539L9.89086 2.15339C10.0069 2.36059 10.0645 2.46379 10.1541 2.53179C10.2437 2.59979 10.3557 2.62539 10.5797 2.67579L10.7828 2.72219C11.57 2.89979 11.9636 2.98938 12.0572 3.29018C12.1508 3.59098 11.8828 3.90538 11.346 4.53257L11.2068 4.69497C11.0548 4.87337 10.9788 4.96217 10.9444 5.07257C10.91 5.18297 10.9212 5.30217 10.9444 5.53977L10.9652 5.75576C11.0468 6.59336 11.0868 7.01176 10.842 7.19815C10.5973 7.38455 10.2285 7.21415 9.49166 6.87496L9.30046 6.78696C9.09166 6.69096 8.98686 6.64296 8.87566 6.64296C8.76446 6.64296 8.65966 6.69096 8.45087 6.78696L8.25967 6.87496C7.52367 7.21495 7.15408 7.38455 6.90928 7.19815C6.66448 7.01176 6.70448 6.59336 6.78608 5.75656L6.80688 5.53977C6.83008 5.30217 6.84128 5.18297 6.80688 5.07257C6.77248 4.96217 6.69648 4.87257 6.54448 4.69497L6.40528 4.53257C5.86929 3.90538 5.60049 3.59098 5.69409 3.29018C5.78769 2.98938 6.18128 2.89979 6.96848 2.72219L7.17168 2.67579C7.39567 2.62539 7.50767 2.59979 7.59727 2.53179C7.68687 2.46379 7.74447 2.36059 7.85967 2.15339L7.96447 1.96539ZM14.8196 5.42057C15.0228 5.05657 15.1236 4.87497 15.2756 4.87497C15.4276 4.87497 15.5284 5.05657 15.7316 5.42057L15.7836 5.51417C15.8412 5.61816 15.87 5.66936 15.9148 5.70376C15.9596 5.73736 16.0156 5.75016 16.1276 5.77576L16.2292 5.79816C16.6228 5.88776 16.8196 5.93176 16.866 6.08296C16.9132 6.23336 16.7788 6.39016 16.5108 6.70376L16.4412 6.78456C16.3652 6.87416 16.3268 6.91896 16.31 6.97415C16.2924 7.02855 16.2988 7.08855 16.31 7.20775L16.3204 7.31575C16.3604 7.73415 16.3812 7.94375 16.2588 8.03655C16.1364 8.12935 15.9524 8.04455 15.5836 7.87495L15.4876 7.83095C15.3836 7.78295 15.3308 7.75895 15.2756 7.75895C15.2196 7.75895 15.1676 7.78295 15.0628 7.83095L14.9676 7.87495C14.5996 8.04455 14.4156 8.12935 14.2924 8.03655C14.17 7.94375 14.19 7.73415 14.2308 7.31575L14.2412 7.20775C14.2524 7.08775 14.2588 7.02855 14.2412 6.97415C14.2244 6.91816 14.186 6.87416 14.11 6.78456L14.0404 6.70376C13.7724 6.39016 13.638 6.23336 13.6852 6.08296C13.7316 5.93176 13.9284 5.88776 14.322 5.79816L14.4236 5.77576C14.5356 5.75016 14.5916 5.73736 14.6364 5.70376C14.6812 5.66936 14.71 5.61736 14.7676 5.51417L14.8196 5.42057ZM2.01971 5.42057C2.22371 5.05657 2.32371 4.87497 2.47571 4.87497C2.62771 4.87497 2.72851 5.05657 2.93171 5.42057L2.98371 5.51417C3.04131 5.61816 3.07011 5.66936 3.1149 5.70376C3.1597 5.73736 3.2157 5.75016 3.3277 5.77576L3.4293 5.79816C3.8229 5.88776 4.0197 5.93176 4.0669 6.08296C4.1133 6.23336 3.9789 6.39016 3.7109 6.70376L3.6413 6.78456C3.5653 6.87416 3.5269 6.91896 3.5101 6.97415C3.4925 7.02855 3.4989 7.08855 3.5101 7.20775L3.5205 7.31575C3.5605 7.73415 3.5813 7.94375 3.4589 8.03655C3.3365 8.12935 3.15171 8.04455 2.78371 7.87495L2.68771 7.83095C2.58371 7.78295 2.53091 7.75895 2.47571 7.75895C2.41971 7.75895 2.36771 7.78295 2.26291 7.83095L2.16771 7.87495C1.79971 8.04455 1.61572 8.12935 1.49252 8.03655C1.37012 7.94375 1.39012 7.73415 1.43092 7.31575L1.44132 7.20775C1.45252 7.08775 1.45892 7.02855 1.44132 6.97415C1.42452 6.91816 1.38612 6.87416 1.31012 6.78456L1.24052 6.70376C0.972521 6.39016 0.838122 6.23336 0.884522 6.08296C0.931721 5.93176 1.12852 5.88776 1.52212 5.79816L1.62372 5.77576C1.73572 5.75016 1.79171 5.73736 1.83651 5.70376C1.88131 5.66936 1.91011 5.61736 1.96771 5.51417L2.01971 5.42057ZM2.07571 10.4749C2.73845 10.4749 3.2757 11.0122 3.2757 11.6749V15.6749C3.2757 16.3376 2.73845 16.8749 2.07571 16.8749C1.41298 16.8749 0.875722 16.3376 0.875722 15.6749V11.6749C0.875722 11.0122 1.41298 10.4749 2.07571 10.4749Z" stroke="white" stroke-width="1.75" stroke-linecap="round"/>
</svg>
