<svg width="191" height="33" viewBox="0 0 191 33" fill="none" xmlns="http://www.w3.org/2000/svg">
<path d="M4.3916 15.2266L12.6768 11.5352C13.0186 11.4121 13.292 11.3438 13.6475 11.3438C14.8916 11.3438 15.7256 12.1914 15.7256 13.4492C15.7256 14.5156 15.0693 15.2539 13.8389 15.5684L5.88184 18.4531V18.6309L13.8115 21.707C15.0557 22.0762 15.7119 22.8281 15.7119 23.8672C15.7119 25.125 14.8643 26.0273 13.6611 26.0273C13.3057 26.0273 13.0322 25.959 12.6631 25.8086L4.3916 21.9668C2.49121 21.2148 1.80762 20.1621 1.80762 18.6309C1.80762 17.0176 2.5459 15.8965 4.3916 15.2266ZM26.6904 29.0352C26.458 29.9102 25.7197 30.4434 24.8311 30.4434C23.7373 30.4434 22.9033 29.5547 22.9443 28.5293C22.9443 28.2695 22.999 28.0098 23.0537 27.873L28.7549 7.625C29.001 6.75 29.7256 6.2168 30.6279 6.2168C31.708 6.2168 32.542 7.0918 32.5146 8.13086C32.501 8.39062 32.4463 8.63672 32.4053 8.78711L26.6904 29.0352ZM45.6396 15.2266C47.4854 15.8965 48.21 17.0176 48.21 18.6309C48.21 20.1621 47.54 21.2148 45.6396 21.9668L37.3682 25.8086C36.9854 25.959 36.7256 26.0273 36.3564 26.0273C35.167 26.0273 34.3057 25.125 34.3057 23.8672C34.3057 22.8281 34.9756 22.0762 36.2061 21.707L44.1494 18.6309V18.4531L36.1924 15.5684C34.9482 15.2539 34.292 14.5156 34.292 13.4492C34.292 12.1914 35.126 11.3438 36.3838 11.3438C36.7393 11.3438 37.0127 11.4121 37.3408 11.5352L45.6396 15.2266Z" fill="#7A68EB"/>
<path d="M57.7461 26.1074C56.6182 26.1074 55.9844 25.4199 55.9844 24.1953V13.7646C55.9844 12.0137 56.6289 11.3369 58.3047 11.3369H62.0752C65.2871 11.3369 67.3174 13.292 67.3174 16.3105C67.3174 19.5225 65.2549 21.3164 61.8926 21.3164H59.5293V24.1953C59.5293 25.4092 58.8848 26.1074 57.7461 26.1074ZM59.54 18.6738H61.1514C62.9883 18.6738 63.8047 18.0723 63.8047 16.375C63.8047 14.9141 62.999 14.0762 61.5488 14.0762H59.54V18.6738ZM72.5381 24.2168C72.5381 25.4199 71.8936 26.1074 70.7764 26.1074C69.6484 26.1074 69.0898 25.4199 69.0898 24.2168V16.3213C69.0898 15.1074 69.6807 14.4307 70.7871 14.4307C71.7861 14.4307 72.3555 14.9893 72.4307 16.0312V16.1924H72.5918C72.9785 15.0107 73.7949 14.3555 74.9014 14.3555C75.374 14.3555 75.75 14.4844 76.0186 14.7422C76.2979 15 76.4482 15.376 76.4482 15.8594C76.4482 16.332 76.3086 16.6758 76.0293 16.9121C75.7715 17.127 75.374 17.2451 74.8584 17.2666C73.3008 17.3203 72.5381 18.1689 72.5381 19.8125V24.2168ZM77.9951 11.5947C77.9951 10.6172 78.7793 9.91895 79.8535 9.91895C80.9385 9.91895 81.7119 10.6172 81.7119 11.5947C81.7119 12.583 80.9385 13.2812 79.8535 13.2812C78.7793 13.2812 77.9951 12.583 77.9951 11.5947ZM81.583 24.2168C81.583 25.4521 80.9492 26.1074 79.8535 26.1074C78.7578 26.1074 78.1348 25.4521 78.1348 24.2168V16.3213C78.1348 15.0859 78.7686 14.4307 79.8535 14.4307C80.9492 14.4307 81.583 15.0859 81.583 16.3213V24.2168ZM84.9668 22.917V17.2881H84.5479C83.6348 17.2881 83.1191 16.8047 83.1191 15.9775C83.1191 15.1504 83.6348 14.667 84.5479 14.667H85.0527V13.4209C85.0527 12.2393 85.6543 11.584 86.7178 11.584C87.792 11.584 88.3828 12.2393 88.3828 13.4209V14.667H89.2852C90.1982 14.667 90.7139 15.1504 90.7139 15.9775C90.7139 16.8047 90.1982 17.2881 89.2852 17.2881H88.4258V22.3906C88.4258 23.3145 88.6836 23.6582 89.4141 23.6582C89.7148 23.6582 89.8975 23.6045 90.1982 23.6045C90.7354 23.6045 91.1113 23.9805 91.1113 24.582C91.1113 25.0762 90.8857 25.4844 90.4561 25.7744C89.9941 26.0967 89.3174 26.2686 88.4473 26.2686C86.0625 26.2686 84.9668 25.2373 84.9668 22.917ZM98.835 24.5928C98.2979 25.5596 97.1807 26.1289 95.8164 26.1289C93.5713 26.1289 92.0566 24.7324 92.0566 22.6592C92.0566 20.5215 93.6572 19.2109 96.3105 19.2002H98.8457V18.373C98.8457 17.4062 98.2119 16.8906 97.1162 16.8906C96.3213 16.8906 95.7412 17.2129 95.1289 17.6533C94.7744 17.8789 94.4199 18.0078 93.8828 18.0078C93.1416 18.0078 92.6904 17.5137 92.6904 16.8477C92.6904 16.1494 93.1631 15.4512 94.2266 14.9463C94.9893 14.5811 96.0098 14.3555 97.3418 14.3555C100.5 14.3555 102.294 15.8271 102.294 18.416V24.2812C102.294 25.4629 101.692 26.1074 100.618 26.1074C99.7373 26.1074 99.1357 25.6455 98.9961 24.8184V24.5928H98.835ZM95.4512 22.4121C95.4512 23.2178 96.1064 23.7764 97.041 23.7764C98.0508 23.7764 98.8457 23.0996 98.8457 22.2295V21.1123H97.084C96.0742 21.1123 95.4512 21.6064 95.4512 22.4121ZM121.619 24.2168C121.619 25.4521 120.996 26.1074 119.89 26.1074C118.783 26.1074 118.171 25.4521 118.171 24.2168V19.125C118.171 17.8574 117.548 17.1377 116.495 17.1377C115.432 17.1377 114.755 17.9434 114.755 19.2217V24.2168C114.755 25.4521 114.186 26.1074 113.111 26.1074C112.026 26.1074 111.457 25.4521 111.457 24.2168V19.1465C111.457 17.8896 110.812 17.1377 109.76 17.1377C108.707 17.1377 108.041 17.9326 108.041 19.2217V24.2168C108.041 25.4521 107.429 26.1074 106.322 26.1074C105.216 26.1074 104.593 25.4521 104.593 24.2168V16.2676C104.593 15.1289 105.237 14.4307 106.279 14.4307C107.268 14.4307 107.891 15.0752 107.944 16.1602V16.4824H108.116C108.471 15.1934 109.706 14.3555 111.264 14.3555C112.886 14.3555 114.035 15.1719 114.4 16.5254H114.562C115.002 15.2148 116.312 14.3555 117.978 14.3555C120.233 14.3555 121.619 15.752 121.619 18.04V24.2168ZM123.628 22.9814C123.628 22.1221 124.251 21.5205 125.014 21.5205C125.529 21.5205 125.97 21.7139 126.561 22.2402C127.441 23.0674 128.505 23.5186 129.59 23.5186C131.126 23.5186 131.953 22.96 131.953 21.9502C131.953 21.1338 131.309 20.6289 129.762 20.2959L127.742 19.834C125.1 19.2754 123.8 17.9111 123.8 15.666C123.8 12.8516 125.991 11.0684 129.429 11.0684C131.309 11.0684 133.006 11.6162 133.994 12.5508C134.628 13.1309 134.961 13.7754 134.961 14.4307C134.961 15.2148 134.402 15.752 133.575 15.752C133.113 15.752 132.651 15.5479 132.2 15.1182C131.448 14.291 130.578 13.8613 129.472 13.8613C128.172 13.8613 127.355 14.4521 127.355 15.376C127.355 16.1816 127.979 16.751 129.343 17.0195L131.384 17.46C134.112 18.0078 135.434 19.3506 135.434 21.5742C135.434 24.4639 133.081 26.3223 129.407 26.3223C127.388 26.3223 125.594 25.7422 124.595 24.7969C123.972 24.2061 123.628 23.583 123.628 22.9814ZM143.63 24.5928C143.093 25.5596 141.976 26.1289 140.611 26.1289C138.366 26.1289 136.852 24.7324 136.852 22.6592C136.852 20.5215 138.452 19.2109 141.105 19.2002H143.641V18.373C143.641 17.4062 143.007 16.8906 141.911 16.8906C141.116 16.8906 140.536 17.2129 139.924 17.6533C139.569 17.8789 139.215 18.0078 138.678 18.0078C137.937 18.0078 137.485 17.5137 137.485 16.8477C137.485 16.1494 137.958 15.4512 139.021 14.9463C139.784 14.5811 140.805 14.3555 142.137 14.3555C145.295 14.3555 147.089 15.8271 147.089 18.416V24.2812C147.089 25.4629 146.487 26.1074 145.413 26.1074C144.532 26.1074 143.931 25.6455 143.791 24.8184V24.5928H143.63ZM140.246 22.4121C140.246 23.2178 140.901 23.7764 141.836 23.7764C142.846 23.7764 143.641 23.0996 143.641 22.2295V21.1123H141.879C140.869 21.1123 140.246 21.6064 140.246 22.4121ZM152.868 24.2168C152.868 25.4199 152.224 26.1074 151.106 26.1074C149.979 26.1074 149.42 25.4199 149.42 24.2168V16.3213C149.42 15.1074 150.011 14.4307 151.117 14.4307C152.116 14.4307 152.686 14.9893 152.761 16.0312V16.1924H152.922C153.309 15.0107 154.125 14.3555 155.231 14.3555C155.704 14.3555 156.08 14.4844 156.349 14.7422C156.628 15 156.778 15.376 156.778 15.8594C156.778 16.332 156.639 16.6758 156.359 16.9121C156.102 17.127 155.704 17.2451 155.188 17.2666C153.631 17.3203 152.868 18.1689 152.868 19.8125V24.2168ZM165.179 24.1631C164.792 25.3555 163.492 26.1289 161.892 26.1289C159.281 26.1289 157.681 24.1738 157.681 20.9512V19.5225C157.681 16.2998 159.292 14.3555 161.902 14.3555C163.492 14.3555 164.717 15.0752 165.146 16.2461H165.318V12.3682C165.318 11.1436 165.931 10.4668 167.037 10.4668C168.154 10.4668 168.767 11.1436 168.767 12.3682V24.2168C168.767 25.4414 168.165 26.1074 167.059 26.1074C166.06 26.1074 165.437 25.5166 165.351 24.4854V24.1631H165.179ZM161.247 20.7363C161.247 22.4551 161.999 23.4648 163.267 23.4648C164.534 23.4648 165.318 22.4551 165.318 20.8008V19.6084C165.318 18.0508 164.491 17.0303 163.245 17.0303C161.988 17.0303 161.247 18.0508 161.247 19.7588V20.7363ZM177.554 24.5928C177.017 25.5596 175.899 26.1289 174.535 26.1289C172.29 26.1289 170.775 24.7324 170.775 22.6592C170.775 20.5215 172.376 19.2109 175.029 19.2002H177.564V18.373C177.564 17.4062 176.931 16.8906 175.835 16.8906C175.04 16.8906 174.46 17.2129 173.848 17.6533C173.493 17.8789 173.139 18.0078 172.602 18.0078C171.86 18.0078 171.409 17.5137 171.409 16.8477C171.409 16.1494 171.882 15.4512 172.945 14.9463C173.708 14.5811 174.729 14.3555 176.061 14.3555C179.219 14.3555 181.013 15.8271 181.013 18.416V24.2812C181.013 25.4629 180.411 26.1074 179.337 26.1074C178.456 26.1074 177.854 25.6455 177.715 24.8184V24.5928H177.554ZM174.17 22.4121C174.17 23.2178 174.825 23.7764 175.76 23.7764C176.77 23.7764 177.564 23.0996 177.564 22.2295V21.1123H175.803C174.793 21.1123 174.17 21.6064 174.17 22.4121ZM186.792 24.2168C186.792 25.4199 186.147 26.1074 185.03 26.1074C183.902 26.1074 183.344 25.4199 183.344 24.2168V16.3213C183.344 15.1074 183.935 14.4307 185.041 14.4307C186.04 14.4307 186.609 14.9893 186.685 16.0312V16.1924H186.846C187.232 15.0107 188.049 14.3555 189.155 14.3555C189.628 14.3555 190.004 14.4844 190.272 14.7422C190.552 15 190.702 15.376 190.702 15.8594C190.702 16.332 190.562 16.6758 190.283 16.9121C190.025 17.127 189.628 17.2451 189.112 17.2666C187.555 17.3203 186.792 18.1689 186.792 19.8125V24.2168Z" fill="white"/>
</svg>
