<svg width="20" height="19" viewBox="0 0 20 19" fill="none" xmlns="http://www.w3.org/2000/svg">
<path d="M18.5006 4.40205C15.5135 -0.00180106 9.39649 -1.30665 4.66579 1.42537C0.0494241 4.15739 -1.43696 10.1107 1.5501 14.501L1.79307 14.8544L0.792616 18.4155L4.53716 17.4641L4.90875 17.6952C6.52377 18.5243 8.2817 19 10.0253 19C11.8976 19 13.7699 18.5243 15.3849 17.5728C20.0013 14.7185 21.3733 8.88745 18.5006 4.37487V4.40205ZM15.8851 13.5631C15.3849 14.2699 14.756 14.7457 13.8842 14.868C13.384 14.868 12.7551 15.0991 10.2683 14.1612C8.15307 13.2098 6.39514 11.6602 5.15172 9.87968C4.40853 9.05056 4.02264 7.97678 3.9083 6.903C3.9083 5.95155 4.2799 5.12243 4.90875 4.52438C5.15172 4.29331 5.40898 4.17098 5.65195 4.17098H6.2808C6.52377 4.17098 6.78103 4.17098 6.90966 4.64671C7.15262 5.24476 7.78148 6.67194 7.78148 6.79427C7.91011 6.91659 7.85294 7.82727 7.28125 8.34377C6.96682 8.68357 6.90966 8.69716 7.03828 8.94182C7.53851 9.64861 8.16737 10.369 8.78193 10.967C9.52512 11.5651 10.2826 12.0408 11.1544 12.3942C11.3974 12.5166 11.6546 12.5166 11.7833 12.2719C11.9119 12.0408 12.5265 11.4428 12.7837 11.1981C13.0267 10.967 13.1553 10.967 13.4126 11.0758L15.4135 12.0272C15.6565 12.1496 15.9137 12.2583 16.0423 12.3806C16.171 12.734 16.171 13.2098 15.9137 13.5631H15.8851Z" fill="black"/>
</svg>
