<svg width="16" height="16" viewBox="0 0 16 16" fill="none" xmlns="http://www.w3.org/2000/svg">
<path d="M5.81818 4.36364C5.81793 5.38187 6.0849 6.38233 6.59242 7.26507C7.09994 8.1478 7.83023 8.88189 8.71032 9.39397C9.59042 9.90605 10.5895 10.1782 11.6077 10.1832C12.6259 10.1882 13.6276 9.92593 14.5127 9.42255C14.1629 13.1127 11.0545 16 7.27273 16C3.256 16 0 12.744 0 8.72727C0 4.94545 2.88727 1.83709 6.57745 1.48727C6.07822 2.36359 5.8165 3.35509 5.81818 4.36364ZM1.45455 8.72727C1.45455 10.2704 2.06753 11.7502 3.15865 12.8413C4.24977 13.9325 5.72965 14.5455 7.27273 14.5455C8.30071 14.5454 9.31035 14.2732 10.199 13.7565C11.0877 13.2398 11.8238 12.497 12.3324 11.6036C12.1025 11.6255 11.8698 11.6364 11.6364 11.6364C7.61964 11.6364 4.36364 8.38036 4.36364 4.36364C4.36364 4.13018 4.37455 3.89818 4.39636 3.66764C3.50301 4.17623 2.76024 4.91228 2.24353 5.80097C1.72682 6.68965 1.45461 7.69929 1.45455 8.72727ZM11.7556 1.66618L12.3636 1.81818V2.54545L11.7556 2.69745C11.4999 2.76141 11.2664 2.89364 11.08 3.08002C10.8936 3.2664 10.7614 3.49993 10.6975 3.75564L10.5455 4.36364H9.81818L9.66618 3.75564C9.60223 3.49993 9.47 3.2664 9.28362 3.08002C9.09723 2.89364 8.86371 2.76141 8.608 2.69745L8 2.54545V1.81818L8.608 1.66618C8.86357 1.60211 9.09695 1.46983 9.28319 1.28346C9.46944 1.09708 9.60156 0.863619 9.66545 0.608L9.81818 0H10.5455L10.6975 0.608C10.7614 0.863708 10.8936 1.09723 11.08 1.28362C11.2664 1.47 11.4999 1.60223 11.7556 1.66618ZM15.392 5.30255L16 5.45455V6.18182L15.392 6.33382C15.1363 6.39777 14.9028 6.53 14.7164 6.71638C14.53 6.90277 14.3978 7.13629 14.3338 7.392L14.1818 8H13.4545L13.3025 7.392C13.2386 7.13629 13.1064 6.90277 12.92 6.71638C12.7336 6.53 12.5001 6.39777 12.2444 6.33382L11.6364 6.18182V5.45455L12.2444 5.30255C12.5001 5.23859 12.7336 5.10636 12.92 4.91998C13.1064 4.7336 13.2386 4.50007 13.3025 4.24436L13.4545 3.63636H14.1818L14.3338 4.24436C14.3978 4.50007 14.53 4.7336 14.7164 4.91998C14.9028 5.10636 15.1363 5.23859 15.392 5.30255Z" fill="#9CA3AF"/>
</svg>
