<svg width="14" height="8" viewBox="0 0 14 8" fill="none" xmlns="http://www.w3.org/2000/svg">
<path d="M7 0C1.1375 0 0 4.43478 0 4.43478C0 4.43478 1.925 8 6.9125 8C11.9 8 14 4.52174 14 4.52174C14 4.52174 12.8625 0 7 0ZM4.6375 1.30435C5.075 1.04348 5.775 1.04348 5.775 1.04348C5.775 1.04348 5.3375 1.82609 5.3375 2.43478C5.3375 3.04348 5.5125 3.3913 5.5125 3.3913L4.55 3.56522C4.55 3.56522 4.2875 3.13043 4.2875 2.52174C4.2875 1.82609 4.6375 1.30435 4.6375 1.30435ZM6.9125 7.13043C3.325 7.13043 1.4875 5.13043 0.9625 4.34783C1.225 3.73913 1.925 2.43478 3.675 1.56522C3.5875 1.91304 3.5 2.26087 3.5 2.69565C3.5 4.6087 5.075 6.17391 7 6.17391C8.925 6.17391 10.5 4.6087 10.5 2.69565C10.5 2.26087 10.4125 1.91304 10.325 1.56522C12.075 2.34783 12.775 3.73913 13.0375 4.34783C12.425 5.13043 10.5875 7.13043 6.9125 7.13043Z" fill="white" fill-opacity="0.8"/>
</svg>
